<?xml version="1.0" encoding="utf-8"?>
<!-- Generator: Adobe Illustrator 26.1.0, SVG Export Plug-In . SVG Version: 6.00 Build 0)  -->
<svg version="1.1" id="レイヤー_1" xmlns="http://www.w3.org/2000/svg" xmlns:xlink="http://www.w3.org/1999/xlink" x="0px"
	 y="0px" viewBox="0 0 253.5 60" style="enable-background:new 0 0 253.5 60;" xml:space="preserve">
<style type="text/css">
	.st0{fill:#FFFFFF;}
</style>
<g id="logo" transform="translate(-0.05 0.084)">
	<g id="グループ_83" transform="translate(43.522 0.949)">
		<path id="パス_118" class="st0" d="M7.9,27.1c-0.2-0.3-0.3-0.6-0.4-0.9c0.1-0.5,0.5-0.9,1-0.8c0.7,0,1.1,0.6,1.5,1.8h1.7
			c0.6-1.3,0.7-1.9,1.6-1.9c0.5-0.1,1,0.3,1.1,0.9c0,0,0,0,0,0c0,0.3-0.2,0.7-0.3,1h1.4c0.5,0.1,0.8,0.5,0.8,1c0,0.5-0.3,0.9-0.8,1
			h-3.5v1.1H16c0.5,0.1,0.8,0.5,0.8,1c0,0.5-0.3,0.9-0.8,1h-3.3c1.3,1.4,2.8,1.7,3.2,2.4c0.2-0.2,0.4-0.4,0.7-0.4l0.9,0.1
			c0.3,0,0.6-0.2,0.6-0.5c0,0,0-0.1,0-0.1v-8.8h-4.3c-1.4,0-2-0.5-2-1.8v-4.8c0-1.2,0.6-1.7,2.1-1.7h4.6c1.4,0,2.1,0.5,2.1,1.7v15.6
			c0,1.9-0.6,2.6-2.6,2.6c-1.1,0-1.8-0.3-2.1-0.8c-0.2,0.2-0.5,0.3-0.8,0.3c-0.9,0-2.4-0.8-4-2.7c-1.7,1.9-3.3,2.7-4.5,2.7
			c-0.6,0.1-1-0.4-1.1-0.9c0,0,0-0.1,0-0.1c0-1.3,2.3-1.2,3.7-3.1H5.9c-0.5-0.1-0.8-0.5-0.8-1c-0.1-0.5,0.3-0.9,0.8-1h3.8v-1.1H6.2
			c-0.5-0.1-0.9-0.5-0.8-1c0-0.5,0.3-0.9,0.8-1L7.9,27.1z M18.2,21.9h-4v0.6c0,0.3,0.1,0.4,0.4,0.4h3.6L18.2,21.9z M18.2,19.3
			c0-0.3-0.1-0.4-0.4-0.4h-3.2c-0.3,0-0.4,0.1-0.4,0.4V20h4L18.2,19.3z M3.8,36c0,0.4-0.5,0.9-1.2,0.9c-0.7,0-1.2-0.4-1.2-0.9V18.5
			c0-1.1,0.7-1.6,2.2-1.6H8c1.4,0,2,0.4,2,1.6v4.8c0,1.3-0.6,1.8-2,1.8H3.8L3.8,36L3.8,36z M3.8,22V23h3.5c0.3,0,0.4-0.1,0.4-0.4V22
			L3.8,22L3.8,22z M7.7,19.3c0-0.3-0.1-0.4-0.4-0.4H4.2c-0.3,0-0.4,0.1-0.4,0.4v0.8h3.9L7.7,19.3"/>
		<path id="パス_119" class="st0" d="M35.7,21.9h3.4c1.8,0,2.5,0.7,2.5,2.5v9.3c0,1.8-0.6,2.5-2.5,2.5H25.4
			c-1.2,0.2-2.3-0.7-2.5-1.9c0-0.2,0-0.4,0-0.6v-9.3c0-1.9,0.6-2.5,2.5-2.5h3v-2.4h-5.4c-0.6-0.1-1-0.6-0.9-1.2c0-0.6,0.4-1,0.9-1.1
			h18.5c0.6,0.1,1,0.5,1,1.1c0,0.6-0.4,1.1-1,1.2h-5.7V21.9z M30.7,24.3c-0.1,0.5-0.8,5.3-2.6,5.5c-0.5,0.1-1.3-0.1-1.5-0.6
			c-0.2-0.4,0.3-0.9,0.6-1.5c0.5-0.7,1-1.8,1.2-3.4c-0.9,0-1.7,0-2.6,0c-0.4,0-0.5,0.1-0.5,0.6v8.2c0,0.5,0.1,0.6,0.6,0.6h12.8
			c0.5,0,0.6-0.1,0.6-0.6v-3.3h-3.8c-1.1,0.1-2-0.6-2.2-1.7c0-0.2,0-0.3,0-0.5v-3.4C32.4,24.3,31.5,24.3,30.7,24.3z M39.2,24.7
			c0-0.4-2.4-0.4-2.8-0.4h-0.7V27c0,0.4,0.1,0.5,0.5,0.5h3v-2.6V24.7z M33.6,19.5c-0.5,0-2.5,0-2.9,0c0,0.9,0,1.7,0,2.6
			c1,0,2,0,2.9,0C33.6,22.1,33.6,19.6,33.6,19.5z"/>
		<path id="パス_120" class="st0" d="M46.3,23.3c0-0.6,0.5-1.1,1.1-1.2c0,0,0.1,0,0.1,0c0.9,0,2.8,1,6,2.8
			c0.8-1.7,1.3-3.5,1.5-5.4c0.3-1.6,0.5-2.4,1.5-2.4c0.8,0,1.4,0.6,1.4,1.6c-0.2,2.6-0.9,5.2-2,7.6c3.7,2,5.6,2.8,5.6,4.2
			c0,0.7-0.5,1.3-1.2,1.3c0,0,0,0,0,0c-0.8,0-2.5-1.3-5.7-3.1c-3.2,5-7.3,7.3-8.9,7.3c-0.7,0-1.3-0.5-1.4-1.2c0,0,0-0.1,0-0.1
			c0-1.1,1.3-1.4,3.2-2.6c1.9-1.2,3.5-2.8,4.7-4.7C48.5,25.2,46.3,24.7,46.3,23.3"/>
		<path id="パス_121" class="st0" d="M67.6,20.9c-0.6-0.1-1.1-0.6-1.1-1.3c0-0.6,0.4-1.2,1.1-1.3h10.7c0.6,0.1,1.1,0.7,1.1,1.3
			c0,0.6-0.4,1.2-1.1,1.3H67.6z M76.8,26.8c0.2,2.4-0.6,4.8-2.1,6.6C73.2,35,71.2,36,69,36.3c-0.7,0.1-1.4-0.4-1.5-1.2
			c0,0,0-0.1,0-0.1c0-1.4,1.5-1.2,3.1-2c2.1-1,3.5-3.2,3.3-5.5c0-0.2,0-0.4,0-0.6h-7.7c-0.6-0.1-1.1-0.7-1.1-1.3
			c0-0.6,0.5-1.2,1.1-1.3h16.5c0.6,0.1,1.1,0.6,1.1,1.3c0,0.6-0.4,1.2-1.1,1.3L76.8,26.8z M82.3,19.5c0,0.5-0.4,0.8-1,0.8
			c-0.4,0-0.8-0.4-1.2-1.2c-0.5-0.8-0.6-1.1-0.6-1.5c0-0.5,0.5-0.8,0.9-0.8c0.6,0,0.8,0.3,1.3,1.2C82.1,18.5,82.3,19,82.3,19.5
			L82.3,19.5z M84.9,19.1c0,0.5-0.4,0.8-0.9,0.8c0,0-0.1,0-0.1,0c-0.4,0-0.8-0.4-1.3-1.2c-0.5-0.8-0.6-1.1-0.6-1.4
			c0-0.5,0.4-0.8,0.9-0.8c0,0,0,0,0,0c0.6,0,0.8,0.3,1.3,1.2C84.7,18,84.8,18.5,84.9,19.1"/>
		<path id="パス_122" class="st0" d="M95.6,26.4c-3.6,1.9-6,2.6-6.7,2.6c-0.7,0.1-1.3-0.5-1.4-1.2c0,0,0-0.1,0-0.1
			c0-0.9,0.6-1,1.7-1.3c2-0.5,4-1.3,5.9-2.3c3.8-2,4.9-4.4,5.9-4.4c0.7,0,1.2,0.5,1.2,1.2c0,1-1.4,2.4-4.2,4.2v10
			c-0.1,0.6-0.6,0.9-1.2,0.9c-0.7,0-1.2-0.4-1.2-0.9L95.6,26.4"/>
		<path id="パス_123" class="st0" d="M115.6,23.2c-0.1,3.1-1,6.1-2.5,8.7c-1.5,2.5-3.1,3.7-4.1,3.7c-0.7,0.1-1.3-0.4-1.4-1
			c0-0.1,0-0.2,0-0.3c0-1.2,1.4-1.3,3.1-3.7c1.4-2.2,2.1-4.7,2.2-7.3h-4.2c-0.6-0.1-1.1-0.7-1-1.3c-0.1-0.6,0.4-1.2,1-1.3h4.3v-2.5
			c0.1-0.6,0.7-1.1,1.3-1c0.6-0.1,1.2,0.4,1.3,1v2.5h6.8c2.4,0,3.1,1.2,3.1,4.2c0,5-0.7,8.3-1.4,9.3c-0.7,1.2-1.9,1.7-3.7,1.7
			c-2.4,0-3.6-0.6-3.6-1.7c0-0.7,0.5-1.2,1.2-1.3c0,0,0.1,0,0.1,0c0.8,0,1.7,0.4,2.6,0.4c1.5,0,2.1-2.5,2.1-7.6c0-1.7,0-2.4-0.6-2.4
			L115.6,23.2"/>
		<path id="パス_124" class="st0" d="M133.6,24.4c0,6.3-2.7,10.5-4.4,10.5c-0.7,0-1.2-0.5-1.3-1.2c0,0,0,0,0,0
			c0-0.8,1.1-1.8,1.9-3.6c0.8-1.8,1.2-3.8,1.1-5.8v-4.8c0.2-0.7,0.9-1.2,1.6-1.1c0.5,0.1,1,0.5,1.1,1.1L133.6,24.4L133.6,24.4z
			 M139.2,31.7c0,0.2,0.1,0.4,0.3,0.4c1-0.2,1.9-0.7,2.7-1.4c1.5-1.2,2.6-3,2.9-4.9c0.4-1.6,0.3-2.8,1.6-2.8c0.8,0,1.3,0.5,1.3,1.5
			c-0.1,2.9-1.4,5.6-3.4,7.7c-1.6,1.6-3.7,2.6-5.9,2.8c-1.2,0.1-2.2-0.9-2.3-2c0-0.1,0-0.3,0-0.4V18.8c0.2-0.7,0.9-1.2,1.6-1.1
			c0.5,0.1,0.9,0.5,1.1,1.1L139.2,31.7"/>
		<path id="パス_125" class="st0" d="M164.9,19.9c1.1,0,1.8,0.6,1.8,1.4c0,1.3-1.5,3.3-4.8,5.4c4.5,1.9,6.8,2.7,6.8,4.1
			c0,0.6-0.4,1.1-1,1.1c-0.1,0-0.1,0-0.2,0c-1,0-3.2-1.4-7.3-3.3v7.1c-0.1,0.7-0.7,1.1-1.3,1.1c-0.7,0-1.2-0.4-1.3-1.1v-6.5
			c-3.4,1.6-5.6,2.3-6.6,2.3c-0.7,0.1-1.4-0.4-1.5-1.1c0-0.1,0-0.1,0-0.2c0-1.7,2.9-1.5,7.6-3.7c3.9-1.9,5.8-3.6,5.8-3.9
			c0-0.1-0.1-0.2-0.2-0.2h-10.9c-0.6-0.1-1.1-0.6-1-1.2c0-0.6,0.4-1.1,1-1.2h5.8v-2c0.1-0.6,0.6-1.1,1.3-1.1c0.7,0,1.3,0.4,1.4,1.1
			v2L164.9,19.9"/>
		<path id="パス_126" class="st0" d="M176.3,26.5c0,0.1,0.1,0.3,0.1,0.5c0,0.7-0.5,1.2-1.2,1.3c-0.4,0-0.8-0.2-1-0.5l-2-4.8
			c0-0.1-0.1-0.2-0.1-0.4c0-0.7,0.5-1.2,1.2-1.2c0.4,0,0.8,0.2,1,0.5L176.3,26.5z M182,25.3c0,0.1,0,0.3,0,0.4
			c0,0.7-0.6,1.2-1.3,1.2c0,0,0,0,0,0c-0.4,0.1-0.8-0.2-1-0.5l-1.7-4.9l-0.1-0.3c0-0.7,0.6-1.2,1.2-1.2c0.5,0,0.9,0.2,1.1,0.6
			L182,25.3z M188.6,23.7c-0.3,4.4-1.8,7.6-4.8,9.9c-1.6,1.4-3.6,2.2-5.7,2.6c-0.7,0.1-1.2-0.4-1.3-1.1c0-0.1,0-0.1,0-0.2
			c0-0.9,0.9-1.2,2.3-1.7c2.2-0.8,4.1-2.2,5.4-4.1c1.4-2.3,1.4-4.5,1.6-6.5c0.1-1.1,0.4-1.6,1.3-1.6c0.8,0,1.2,0.5,1.2,1.6
			L188.6,23.7"/>
		<path id="パス_127" class="st0" d="M199.2,23.5c3.2,0.6,7.1,1.3,8.9,1.9c1,0.4,1.9,0.6,1.9,1.6c0,0.7-0.5,1.3-1.2,1.3
			c0,0-0.1,0-0.1,0c-0.7,0-3.8-1-9.6-2.2v9c-0.1,0.8-0.9,1.3-1.7,1.1c-0.6-0.1-1-0.6-1.1-1.1V18c0.1-0.8,0.9-1.3,1.7-1.1
			c0.6,0.1,1,0.6,1.1,1.1L199.2,23.5"/>
		<path id="パス_128" class="st0" d="M3,10.3c0,0.5,0,1-0.7,1c-0.8,0-0.8-0.4-0.8-1V6.7C1.3,7.5,1.1,7.9,0.7,7.9
			C0.3,7.9,0,7.5,0,7.1C0,7,0,6.9,0.4,6.2c0.5-0.8,0.9-1.7,1.2-2.6H1.2c-0.5,0-1,0-1-0.7s0.5-0.7,1-0.7h0.4V1.1c0-0.5,0-1,0.7-1
			c0.8,0,0.8,0.4,0.8,1v1.2h0.2c0.5,0,1,0,1,0.7s-0.5,0.7-1,0.7H3.1V4c0.3,0.5,0.7,1,1.1,1.5C4.5,5.9,4.6,6,4.6,6.3
			c0,0.3-0.3,0.6-0.6,0.7c-0.3,0-0.5-0.2-0.9-0.8L3,10.3L3,10.3z M7.1,1.1c0-0.5,0-1,0.7-1c0.8,0,0.8,0.4,0.8,1v0.6h1.6
			c0.4,0,1,0,1,0.7c0,0.7-0.6,0.7-1,0.7H8.6v1.2h1.8c0.5,0,1,0,1,0.6c0,0.7-0.4,0.7-1,0.7h-1c0.4,0.9,0.8,1.8,1.4,2.6
			c0.1,0.2,0.6,0.8,0.7,1c0.1,0.1,0.1,0.2,0.1,0.4c0,0.4-0.3,0.7-0.7,0.7c-0.3,0-0.6-0.2-0.7-0.5C9.5,9,9,8,8.6,7v3.2
			c0,0.5,0,1-0.7,1c-0.8,0-0.8-0.4-0.8-1v-3C6.7,8.1,6.2,9,5.6,9.8c-0.4,0.5-0.6,0.6-0.9,0.6C4.3,10.4,4,10,4,9.6
			c0-0.3,0.1-0.4,0.6-0.9c0.8-0.9,1.4-1.9,1.8-3H5.2c-0.5,0-1,0-1-0.6c0-0.7,0.4-0.7,1-0.7h1.9V3.1H6.1c-0.3,0.8-0.5,1-0.8,1
			S4.4,3.8,4.4,3.5c0-0.2,0.1-0.4,0.2-0.6c0.3-0.7,0.5-1.4,0.6-2.1c0-0.3,0.3-0.5,0.6-0.5c0.4,0,0.7,0.2,0.7,0.6c0,0,0,0,0,0.1
			c0,0.3-0.1,0.5-0.1,0.8h0.7L7.1,1.1L7.1,1.1z"/>
		<path id="パス_129" class="st0" d="M21.9,3.4c0.1,1.8,0.5,3.7,1,5.4c0,0.1,0.2,0.5,0.3,0.5c0.2,0,0.3-0.4,0.4-0.9
			c0-0.3,0.3-0.5,0.6-0.5c0.1,0,0.7,0,0.7,0.6c0,0.6-0.2,1.2-0.4,1.8c-0.2,0.5-0.6,0.9-1.1,0.9c-0.6-0.1-1.1-0.4-1.3-1
			c-0.5-0.9-0.8-1.8-1-2.8c-0.3-1.4-0.5-2.8-0.6-4.2h-5.8c-0.5,0-1,0-1-0.7C13.6,2,14,2,14.6,2h5.7c0-0.5,0-1,0-1.5
			c0.1-0.2,0.4-0.4,0.6-0.4c0.5,0,0.7,0.2,0.7,0.5c0,0.1,0.1,1.2,0.1,1.4h1.1c-0.7-1-0.7-1.1-0.7-1.3c0-0.4,0.3-0.7,0.7-0.7
			c0.4,0,0.6,0.2,0.9,0.7c0.5,0.6,0.5,0.8,0.5,1c0,0.1-0.1,0.3-0.2,0.4c0.3,0.1,0.4,0.3,0.4,0.6c0,0.8-0.4,0.8-1,0.8L21.9,3.4
			L21.9,3.4z M17.5,9.1C17.9,9.1,18,9,18.8,8.9c0.1,0,0.2-0.1,0.4-0.1c0.4,0,0.7,0.4,0.7,0.8c0,0.3-0.2,0.5-0.4,0.6
			c-1.6,0.4-3.3,0.7-4.9,0.8c-0.3,0-0.9,0-0.9-0.7c0-0.4,0.2-0.7,0.6-0.8c0,0,0.1,0,0.1,0c0.8,0,1,0,1.6-0.1v-3h-1.2
			c-0.5,0-0.6,0-0.8-0.2c-0.1-0.1-0.2-0.3-0.2-0.5c0-0.2,0.1-0.4,0.3-0.6C14.3,5,14.5,5,14.8,5h3.8c0.4,0,0.6,0,0.8,0.2
			c0.1,0.1,0.2,0.3,0.2,0.5c0,0.2-0.1,0.4-0.3,0.6c-0.2,0.1-0.5,0.1-0.7,0.1h-1.2L17.5,9.1z"/>
		<path id="パス_130" class="st0" d="M30.3,4.8c-0.6,0-1,0-1-0.8c-0.4,0.2-0.8,0.4-1.3,0.6c-0.1,0-0.2,0-0.4,0
			c-0.4,0-0.8-0.3-0.8-0.7c0,0,0-0.1,0-0.1c0-0.5,0.2-0.6,1.2-1c1.2-0.6,2.4-1.4,3.5-2.3c0.2-0.3,0.6-0.4,1-0.5c0.4,0,0.4,0,1.4,0.8
			c1.2,0.9,2.4,1.7,3.7,2.3c0.3,0.1,0.4,0.4,0.4,0.6c0,0.2-0.2,0.8-0.7,0.8c-0.6-0.1-1.1-0.3-1.6-0.7c0,0.8-0.4,0.8-1,0.8H30.3z
			 M35,3.3c-0.8-0.4-1.5-1-2.1-1.5c-0.1-0.1-0.1-0.1-0.2-0.1c0,0-0.1,0-0.3,0.2c-0.6,0.6-1.3,1-2,1.5H35L35,3.3z M28,7.5
			c-0.5,0-1,0-1-0.7S27.5,6,28,6h9.2c0.5,0,1,0,1,0.7c0,0.7-0.5,0.7-1,0.7h-5.5c-0.1,0.3-0.6,1.6-0.7,2.1c1.2-0.1,2.9-0.2,4.1-0.4
			c-0.1-0.1-0.3-0.4-0.4-0.5c-0.1-0.1-0.1-0.2-0.1-0.4c0-0.4,0.4-0.7,0.8-0.7c0.2,0,0.4,0,1.4,1.4c0.9,1.2,0.9,1.4,0.9,1.6
			c-0.1,0.4-0.4,0.7-0.8,0.7c-0.2,0-0.4-0.1-0.5-0.2c0,0-0.4-0.6-0.4-0.6c-0.3,0.1-3.2,0.4-3.8,0.5c-0.7,0.1-1.5,0.1-2.1,0.2
			c-0.4,0.1-0.9,0.1-1.3,0.1c-0.3,0-0.5,0-0.7-0.2c-0.2-0.2-0.3-0.4-0.3-0.6c0-0.3,0.2-0.6,0.4-0.6c0.4-0.1,0.8-0.1,1.2-0.1
			c0.1-0.3,0.3-0.7,0.5-1.3c0.1-0.3,0.3-0.9,0.4-0.9L28,7.5L28,7.5z"/>
		<path id="パス_131" class="st0" d="M43.4,10.4c0,0.5,0,1-0.7,1c-0.7,0-0.7-0.3-0.7-1V7.7c-0.7,0.7-0.9,0.7-1.1,0.7
			c-0.4,0-0.7-0.3-0.7-0.7c0,0,0,0,0-0.1c0-0.4,0.1-0.5,0.8-1.1c1-0.8,1.7-1.9,2.2-3.1c0-0.1,0-0.1-0.2-0.1h-1.6c-0.5,0-1,0-1-0.7
			s0.5-0.7,1-0.7H42V1.2c0-0.5,0-1,0.7-1c0.8,0,0.8,0.4,0.8,1V2H44c0.5,0,0.9,0.4,0.8,0.9c0,0,0,0,0,0c-0.1,0.9-0.5,1.8-1,2.5
			c0.2,0.1,1.2,0.8,1.4,1c0.2,0.1,0.3,0.3,0.3,0.5c0,0.4-0.3,0.7-0.7,0.7c-0.2,0-0.3-0.1-0.4-0.2c-0.2-0.2-0.9-0.6-0.9-0.7
			L43.4,10.4L43.4,10.4z M47.5,4.5H46c-0.5,0-1,0-1-0.7S45.5,3,46,3h1.5V1.2c0-0.5,0-1,0.7-1c0.3,0,0.5,0.1,0.6,0.3
			C48.9,0.7,49,1,48.9,1.2v1.9h1.3c0.5,0,1,0,1,0.7s-0.5,0.7-1,0.7h-1.3v5h1.5c0.5,0,1,0,1,0.7s-0.5,0.7-1,0.7h-4.8
			c-0.5,0-1,0-1-0.7s0.5-0.7,1-0.7h1.9L47.5,4.5L47.5,4.5z"/>
	</g>
	<g id="グループ_84" transform="translate(0.05 -0.084)">
		<path id="パス_132" class="st0" d="M25.2,3.2l0.4-0.6l1,2h0.5l-1.2-2.3l1.2-1.6h-0.5l-1.3,1.9V0.7h-0.4v3.9h0.4V3.2"/>
		<path id="パス_133" class="st0" d="M27.9,3.5H29l0.3,1.1h0.4l-1-3.9h-0.4l-1,3.9h0.4L27.9,3.5z M28.4,1.3L28.4,1.3L28.8,3H28
			L28.4,1.3"/>
		<path id="パス_134" class="st0" d="M30.3,1.5L30.3,1.5l1.4,3.1h0.4V0.7h-0.4v3.2h0l-1.4-3.2H30v3.9h0.4V1.5"/>
		<path id="パス_135" class="st0" d="M33.8,4.2C33.4,4.2,33,4,33,3.3h-0.4c0,0.4,0.1,0.7,0.3,1c0.2,0.3,0.5,0.4,0.8,0.4
			c0.6,0,1.1-0.4,1.1-1c0-0.1,0-0.1,0-0.2c0.1-0.4-0.2-0.9-0.6-1l-0.8-0.3c-0.2-0.1-0.4-0.3-0.3-0.5c0-0.3,0.2-0.6,0.5-0.7
			c0,0,0.1,0,0.1,0c0.3,0,0.7,0.2,0.7,0.8h0.4c0-0.4-0.1-1.2-1.1-1.2c-0.7,0-1,0.6-1,1.2c-0.1,0.4,0.2,0.8,0.6,0.9l0.6,0.2
			c0.5,0.1,0.6,0.3,0.6,0.7C34.5,4,34.2,4.3,33.8,4.2C33.8,4.3,33.8,4.3,33.8,4.2"/>
		<path id="パス_136" class="st0" d="M37.5,4.6l-1-3.9h-0.4l-1,3.9h0.4l0.3-1.1h1.1l0.3,1.1H37.5z M35.9,3l0.4-1.7h0L36.7,3
			L35.9,3"/>
		<rect id="長方形_46" x="37.9" y="0.7" class="st0" width="0.4" height="3.9"/>
		<path id="パス_137" class="st0" d="M25.2,8.4c0-0.1,0-0.6,0-1h0l0.8,3.2h0.4l0.8-3.2l0,0c0,0.4,0,0.9,0,1v2.3h0.4V6.8H27
			l-0.8,3.3h0l-0.8-3.3h-0.5v3.9h0.4L25.2,8.4"/>
		<path id="パス_138" class="st0" d="M30.1,10.2h-1.7V8.9H30V8.5h-1.5V7.3h1.6V6.8h-2v3.9h2V10.2"/>
		<path id="パス_139" class="st0" d="M30.6,6.8v3.9h1.1c0.9,0,1.2-1.1,1.2-2c0-1.1-0.4-1.9-1.2-1.9H30.6z M32.5,8.7
			c0,1-0.3,1.5-0.8,1.5H31v-3h0.7C32.2,7.3,32.5,7.7,32.5,8.7"/>
		<rect id="長方形_47" x="33.4" y="6.8" class="st0" width="0.4" height="3.9"/>
		<path id="パス_140" class="st0" d="M35.6,10.3c-0.7,0-0.9-0.7-0.9-1.6c0-1,0.4-1.5,0.9-1.5c0.3,0,0.7,0.1,0.8,0.8h0.4
			c-0.1-0.7-0.4-1.3-1.1-1.3c-0.8,0-1.3,0.8-1.3,2c0,1.5,0.6,2.1,1.2,2.1c0.2,0,1.1-0.1,1.2-1.5h-0.4C36.3,10.1,35.9,10.3,35.6,10.3
			"/>
		<path id="パス_141" class="st0" d="M38,6.8l-1,3.9h0.4l0.3-1.1h1.1l0.3,1.1h0.4l-1-3.9H38z M37.8,9.1l0.4-1.7h0l0.4,1.7H37.8"/>
		<path id="パス_142" class="st0" d="M41.6,10.2h-1.4V6.8h-0.4v3.9h1.8V10.2"/>
		<path id="パス_143" class="st0" d="M26.7,16l-1.4-3.1h-0.4v3.9h0.4v-3.1h0l1.4,3.1H27v-3.9h-0.4L26.7,16L26.7,16"/>
		<path id="パス_144" class="st0" d="M29.7,13.4v-0.5h-2v3.9h2v-0.5H28V15h1.5v-0.5H28v-1.2H29.7"/>
		<path id="パス_145" class="st0" d="M31.3,16.8v-3.4h0.9v-0.5H30v0.5h0.9v3.4L31.3,16.8"/>
		<path id="パス_146" class="st0" d="M33.5,23c-1-2.9-4.1-4.6-7.1-3.6l-3.7,1.2v-3.9c0-3.1-2.5-5.6-5.6-5.6h-0.2
			c-3.1,0-5.6,2.5-5.6,5.6v7.7c-4,1.3-7.3,2.4-7.3,2.4C1.6,27.5,0,29.6,0,32.1c0,0.6,0.1,1.2,0.3,1.7L0.3,34c1,2.9,4.1,4.6,7.1,3.6
			c0,0,0,0,0,0l3.7-1.2v3.9c0,3.1,2.5,5.6,5.6,5.6c0,0,0,0,0,0H17c3.1,0,5.6-2.5,5.6-5.6c0,0,0,0,0,0v-7.6l7.3-2.4
			c2.9-1,4.5-4.1,3.6-7.1L33.5,23z M11.2,34.3l-4.4,1.4c-1.9,0.6-3.9-0.4-4.5-2.3c0,0,0,0,0,0l-0.1-0.2c-0.6-1.9,0.4-3.9,2.3-4.5
			l6.7-2.1V34.3L11.2,34.3z M20.6,40.3c0,2-1.6,3.6-3.6,3.6h-0.2c-2,0-3.6-1.6-3.6-3.6v-4.6l7.4-2.4L20.6,40.3z M29.3,28.4
			l-16.1,5.2V16.7c0-2,1.6-3.6,3.6-3.6c0,0,0,0,0,0H17c2,0,3.6,1.6,3.6,3.6c0,0,0,0,0,0v7.5h2v-1.4l4.4-1.4c0.9-0.3,1.9-0.2,2.7,0.2
			c0.9,0.4,1.5,1.2,1.8,2.1l0.1,0.2C32.2,25.7,31.2,27.8,29.3,28.4"/>
		<path id="パス_147" class="st0" d="M16.9,8.8c2.4,0,4.4-2,4.4-4.4c0-2.4-2-4.4-4.4-4.4c-2.4,0-4.4,2-4.4,4.4
			C12.5,6.8,14.5,8.8,16.9,8.8"/>
	</g>
	<g id="グループ_86" transform="translate(44.291 44.968)">
		<g id="グループ_85">
			<path id="パス_148" class="st0" d="M127.9,6.6c0,0.8-0.3,1.6-0.8,2.2c-0.7,0.8-1.8,0.9-2.7,0.4l0.2-1c0.3-1.8,1.3-2.8,2.2-2.8
				c0.6,0,1.1,0.5,1.2,1.1C127.9,6.5,127.9,6.6,127.9,6.6 M127.1,4.5c-0.8,0-1.6,0.4-2.2,1.1l0.1-0.9l0,0l0,0h-1c0,0-0.1,0-0.1,0
				c-0.1,0.6-0.2,1.4-0.3,1.9l-1,5.8l0,0l0,0h1.1c0,0,0.1,0,0.1,0l0.4-2.3c0.4,0.2,0.9,0.3,1.4,0.2c1,0,1.9-0.4,2.5-1.1
				c0.7-0.7,1.1-1.7,1-2.7c0-1.1-0.9-2-2-2C127.2,4.5,127.1,4.5,127.1,4.5"/>
			<path id="パス_149" class="st0" d="M133.9,8.9c-0.3,0.4-0.8,0.6-1.3,0.6c-0.8,0-1.5-0.6-1.5-1.4c0,0,0-0.1,0-0.1
				c0-0.7,0.2-1.5,0.7-2c0.3-0.4,0.8-0.6,1.3-0.6c0.8,0,1.5,0.6,1.5,1.4c0,0,0,0.1,0,0.1C134.7,7.6,134.4,8.3,133.9,8.9 M133.2,4.5
				c-0.9,0-1.8,0.4-2.4,1c-0.6,0.7-1,1.6-0.9,2.5c0.1,1.3,1.2,2.4,2.5,2.3c0,0,0.1,0,0.1,0c1.8,0,3.4-1.5,3.4-3.3c0-0.1,0-0.1,0-0.2
				c0-1.3-1.1-2.4-2.5-2.3C133.4,4.5,133.3,4.5,133.2,4.5"/>
			<path id="パス_150" class="st0" d="M144.9,4.6L144.9,4.6l-1.1,0c0,0,0,0-0.1,0l-1.3,3.2c-0.2,0.4-0.3,0.8-0.5,1.2
				c0-0.1,0-0.2,0-0.4c0-0.3-0.1-0.5-0.1-0.9l-0.5-3.1c0,0,0,0-0.1,0h-1.1c0,0,0,0-0.1,0l-1.3,3.2c-0.1,0.3-0.2,0.6-0.3,0.8
				c-0.1,0.2-0.1,0.3-0.2,0.4c0-0.2,0-0.3,0-0.5c0-0.2,0-0.5-0.1-0.8l-0.5-3.1c0,0,0,0-0.1,0h-1.1l0,0l0,0l0.9,5.5c0,0,0,0,0.1,0
				h1.2c0,0,0,0,0.1,0l1.3-3c0.2-0.5,0.4-0.9,0.5-1.2c0,0.5,0.1,0.8,0.2,1.2l0.5,3c0,0,0,0,0.1,0h1.2c0,0,0,0,0.1,0L144.9,4.6
				L144.9,4.6z"/>
			<path id="パス_151" class="st0" d="M165.5,4.6h-1.1c0,0,0,0-0.1,0l-1.3,3.2c-0.2,0.4-0.3,0.8-0.5,1.2c0-0.1,0-0.2,0-0.4
				c0-0.3-0.1-0.5-0.1-0.9l-0.5-3.1c0,0,0,0-0.1,0h-1.1c0,0,0,0-0.1,0l-1.3,3.2c-0.1,0.3-0.2,0.6-0.3,0.8c-0.1,0.2-0.1,0.3-0.2,0.4
				c0-0.2,0-0.3,0-0.5c0-0.2,0-0.5-0.1-0.8l-0.5-3.1c0,0,0,0-0.1,0h-1.1l0,0l0,0l0.9,5.5c0,0,0,0,0.1,0h1.2c0,0,0,0,0.1,0l1.3-3
				c0.2-0.5,0.4-0.9,0.5-1.2c0,0.5,0.1,0.8,0.2,1.2l0.5,3c0,0,0,0,0.1,0h1.2c0,0,0,0,0.1,0L165.5,4.6L165.5,4.6L165.5,4.6z"/>
			<path id="パス_152" class="st0" d="M154.5,4.5c-0.1,0-0.2,0-0.3,0c-0.8,0-1.5,0.5-1.8,1.2c0-0.3,0.1-0.7,0.1-1l0,0l0,0h-0.9
				c0,0-0.1,0-0.1,0.1c-0.1,0.7-0.1,1.4-0.2,1.9l-0.6,3.5l0,0l0,0h1.1c0,0,0.1,0,0.1,0l0.4-2.4c0.2-1.3,1-2.2,1.9-2.2
				c0.1,0,0.2,0,0.3,0c0,0,0.1,0,0.1,0c0,0,0,0,0,0L154.5,4.5L154.5,4.5L154.5,4.5z"/>
			<path id="パス_153" class="st0" d="M167.4,2.7c-0.2,0-0.4,0.1-0.6,0.2c-0.1,0.1-0.2,0.3-0.2,0.5c0,0.4,0.3,0.7,0.7,0.6
				c0,0,0,0,0,0c0.2,0,0.4-0.1,0.6-0.2c0.1-0.1,0.2-0.3,0.2-0.5C168.1,3,167.8,2.7,167.4,2.7C167.4,2.7,167.4,2.7,167.4,2.7"/>
			<path id="パス_154" class="st0" d="M167.7,4.6h-1.1c0,0-0.1,0-0.1,0l-0.9,5.5l0,0l0,0h1.1c0,0,0.1,0,0.1,0L167.7,4.6L167.7,4.6
				L167.7,4.6z"/>
			<path id="パス_155" class="st0" d="M176.6,4.5c-0.8,0-1.6,0.3-2.1,1l0.5-3.1l0,0l0,0h-1.1c0,0-0.1,0-0.1,0l-1.3,7.8l0,0l0,0
				h1.1c0,0,0.1,0,0.1,0l0.5-2.7c0.1-1.1,0.9-1.9,2-2c0.5-0.1,0.9,0.3,1,0.7c0,0,0,0.1,0,0.1c0,0.2,0,0.5,0,0.7l-0.6,3.2l0,0l0,0
				h1.1c0,0,0.1,0,0.1,0l0.6-3.2c0.1-0.3,0.1-0.6,0.1-0.9C178.3,5.2,177.5,4.5,176.6,4.5C176.7,4.5,176.6,4.5,176.6,4.5"/>
			<path id="パス_156" class="st0" d="M185.5,4.5c-0.8,0-1.6,0.3-2.1,1l0.5-3.1l0,0l0,0h-1.1c0,0-0.1,0-0.1,0l-1.3,7.8l0,0l0,0
				h1.1c0,0,0,0,0.1,0l0.5-2.7c0.1-1.1,0.9-1.9,2-2c0.5-0.1,0.9,0.3,1,0.7c0,0,0,0.1,0,0.1c0,0.2,0,0.5,0,0.7l-0.6,3.2l0,0l0,0h1.1
				c0,0,0.1,0,0.1,0l0.6-3.2c0.1-0.3,0.1-0.6,0.1-0.9C187.1,5.2,186.4,4.5,185.5,4.5C185.5,4.5,185.5,4.5,185.5,4.5"/>
			<path id="パス_157" class="st0" d="M196,9.4c-0.6,0-1.1-0.4-1.1-1c0,0,0-0.1,0-0.1c0-0.8,0.3-1.5,0.8-2.1
				c0.5-0.5,1.2-0.8,1.9-0.9c0.2,0,0.4,0,0.6,0.1l0,0L198,7C197.8,8.4,196.9,9.4,196,9.4 M199.6,4.7c-0.6-0.1-1.1-0.2-1.7-0.2
				c-1.2,0-2.3,0.4-3.1,1.2c-0.7,0.7-1.1,1.7-1,2.7c0,1,0.9,1.9,1.9,1.9c0,0,0,0,0,0c1,0,1.8-0.5,2.2-1.4c0,0.4-0.1,0.8-0.1,1.2
				c0,0,0,0.1,0.1,0.1h0h1c0,0,0.1,0,0.1-0.1v0c0-0.8,0-1.7,0.2-2.5L199.6,4.7C199.6,4.7,199.6,4.7,199.6,4.7"/>
			<path id="パス_158" class="st0" d="M204.2,4.5c-0.1,0-0.2,0-0.3,0c-0.8,0-1.5,0.5-1.8,1.2c0-0.3,0.1-0.7,0.1-1l0,0l0,0h-0.9
				c0,0-0.1,0-0.1,0.1c0,0,0,0,0,0c-0.1,0.7-0.1,1.4-0.2,1.9l-0.6,3.5l0,0l0,0h1.1c0,0,0,0,0.1,0l0.4-2.4c0.2-1.3,1-2.2,1.9-2.2
				c0.1,0,0.2,0,0.3,0c0,0,0.1,0,0.1,0L204.2,4.5L204.2,4.5L204.2,4.5z"/>
			<path id="パス_159" class="st0" d="M148.9,6c0,0.2,0,0.3-0.2,0.5c-0.3,0.4-1.2,0.5-2.6,0.5h-0.1c0.2-0.9,1-1.6,1.9-1.6
				C148.6,5.3,148.9,5.6,148.9,6 M148.1,4.5c-0.9,0-1.7,0.4-2.3,1c-0.7,0.7-1,1.6-1,2.6c0,1.3,1,2.3,2.3,2.3c0.1,0,0.2,0,0.3,0
				c0.7,0,1.3-0.1,2-0.4l0,0l0.1-0.8l0-0.1l-0.1,0c-0.6,0.3-1.2,0.4-1.9,0.4c-0.6,0-1.1-0.2-1.4-0.7c-0.1-0.3-0.2-0.6-0.2-1h0.2
				c1.8,0,3-0.3,3.5-0.9c0.3-0.3,0.4-0.6,0.4-1C150.1,5.1,149.3,4.5,148.1,4.5"/>
			<path id="パス_160" class="st0" d="M192.1,6c0,0.2,0,0.3-0.2,0.5c-0.3,0.4-1.2,0.5-2.6,0.5h-0.1c0.2-0.9,1-1.6,1.9-1.6
				C191.7,5.3,192.1,5.6,192.1,6 M191.3,4.5c-0.9,0-1.7,0.4-2.3,1c-0.7,0.7-1,1.6-1,2.6c0,1.3,1,2.3,2.3,2.3c0.1,0,0.2,0,0.3,0
				c0.7,0,1.3-0.1,2-0.4l0,0l0.1-0.8l0-0.1l-0.1,0c-0.6,0.3-1.2,0.4-1.9,0.4c-0.6,0-1.1-0.2-1.4-0.7c-0.1-0.3-0.2-0.6-0.2-1h0.2
				c1.8,0,3-0.3,3.5-0.9c0.3-0.3,0.4-0.6,0.4-1C193.2,5.1,192.4,4.5,191.3,4.5"/>
			<path id="パス_161" class="st0" d="M172.3,4.6h-1.4l0.2-1.3l0-0.1l-0.1,0l-1.1,0.2c0,0,0,0,0,0l-0.2,1.1h-0.9c0,0,0,0-0.1,0
				l-0.1,0.7l0,0l0,0h0.8L169,8.2c-0.1,0.3-0.1,0.7-0.1,1c0,0.7,0.6,1.1,1.4,1.1c0.3,0,0.6,0,1-0.2l0,0l0.1-0.8l0-0.1l-0.1,0
				c-0.2,0.1-0.5,0.1-0.7,0.1c-0.4,0-0.5-0.2-0.6-0.5c0-0.3,0-0.6,0.1-0.9l0.5-2.6h1.5c0,0,0.1,0,0.1,0L172.3,4.6L172.3,4.6
				L172.3,4.6z"/>
			<path id="パス_162" class="st0" d="M208.5,4.6L208.5,4.6l-1.5,0l0.2-1.3l0-0.1l-0.1,0l-1.1,0.2c0,0,0,0,0,0l-0.2,1.1H205
				c0,0-0.1,0-0.1,0l-0.1,0.7l0,0l0,0h0.8l-0.5,2.7c-0.1,0.3-0.1,0.7-0.1,1c0,0.7,0.6,1.1,1.4,1.1c0.3,0,0.6,0,1-0.2l0,0l0.1-0.8
				l0-0.1l-0.1,0c-0.2,0.1-0.5,0.1-0.7,0.1c-0.4,0-0.5-0.2-0.6-0.5c0-0.3,0-0.6,0.1-0.9l0.5-2.6h1.5c0,0,0.1,0,0.1,0L208.5,4.6
				L208.5,4.6z"/>
			<path id="パス_163" class="st0" d="M161.9,3.7c-10.3-4.9-22.3-4.9-32.6,0c0,0-0.1,0-0.1,0.1c0,0,0,0.1,0.1,0.1h0.8
				c0.1,0,0.2,0,0.3-0.1c9.9-3.6,20.7-3.6,30.5,0c0.1,0,0.2,0.1,0.3,0.1h0.8C161.9,3.8,162,3.8,161.9,3.7C162,3.7,162,3.7,161.9,3.7
				"/>
			<path id="パス_164" class="st0" d="M204.1,11.2C204,11.1,204,11.1,204.1,11.2l-0.9-0.1c-0.1,0-0.2,0-0.3,0.1
				c-4.9,1.8-10.1,2.7-15.3,2.7c-5.2,0-10.4-0.9-15.3-2.7c-0.1,0-0.2-0.1-0.3-0.1h-0.8c0,0-0.1,0-0.1,0.1c0,0,0,0.1,0.1,0.1
				c2.5,1.2,5.1,2.1,7.8,2.7c2.8,0.6,5.6,1,8.5,1l0,0c2.9,0,5.7-0.3,8.5-1C198.9,13.4,201.5,12.4,204.1,11.2
				C204,11.2,204.1,11.2,204.1,11.2"/>
			<path id="パス_165" class="st0" d="M31.2,12.2c-1.3,0-2.6-0.5-3.6-1.4c-1,0.9-2.3,1.4-3.6,1.4l0,0c-0.1,0-0.1,0-0.1-0.1
				c0,0,0,0,0,0v-0.5c0,0,0-0.1,0.1-0.1c0,0,0,0,0,0l0,0c1.1-0.1,2.1-0.7,2.7-1.7H24c-0.1,0-0.1-0.1-0.1-0.1c0,0,0,0,0,0V9.1
				C23.8,9,23.9,9,24,9c0,0,0,0,0,0h2.9V8.3H24c-0.1,0-0.1-0.1-0.1-0.1c0,0,0,0,0,0V7.6c0-0.1,0.1-0.1,0.1-0.1h1.9l-1-0.9
				c0,0,0-0.1,0.1-0.1h1.3c0.1,0,0.2,0,0.2,0.1l0,0l0.7,0.9h1.2L29,6.5c0.1-0.1,0.1-0.1,0.2-0.1h1.2c0.1,0,0.1,0.1,0.1,0.1l-1,0.9
				h1.9c0.1,0,0.1,0.1,0.1,0.1c0,0,0,0,0,0v0.6c0,0.1-0.1,0.1-0.1,0.1c0,0,0,0,0,0h-3V9h3c0.1,0,0.1,0.1,0.1,0.1c0,0,0,0,0,0v0.6
				c0,0.1-0.1,0.1-0.1,0.1c0,0,0,0,0,0h-2.8c0.6,1,1.6,1.6,2.8,1.7c0,0,0.1,0,0.1,0.1L31.2,12.2C31.3,12.2,31.3,12.2,31.2,12.2
				L31.2,12.2z M32.3,3.6h-2.8V3h2.8V3.6z M32.3,5.2h-2.8V4.5h2.8V5.2z M33.5,2.1h-5.3c-0.1,0-0.2,0.1-0.2,0.2c0,0,0,0,0,0v3.5
				c0,0.1,0.1,0.2,0.2,0.2c0,0,0,0,0,0h4v5.4c0,0.1,0,0.1-0.2,0.1h-0.2c0,0-0.1,0-0.1,0.1c0,0,0,0,0,0v0.7c0,0.1,0,0.1,0.1,0.1
				c0,0,0,0,0,0h1.2c0.5,0,0.6-0.2,0.6-0.6V2.3C33.7,2.2,33.6,2.1,33.5,2.1C33.5,2.1,33.5,2.1,33.5,2.1 M23.1,4.5h2.8v0.6h-2.8V4.5z
				 M23.1,3h2.8v0.6h-2.8V3z M23.1,12.3V6h4c0.1,0,0.2-0.1,0.2-0.2c0,0,0,0,0,0V2.3c0-0.1-0.1-0.2-0.2-0.2h0h-5.3
				c-0.1,0-0.2,0.1-0.2,0.2v9.9c0,0.1,0.1,0.2,0.2,0.2h1.1C23,12.4,23.1,12.4,23.1,12.3C23.1,12.3,23.1,12.3,23.1,12.3"/>
			<path id="パス_166" class="st0" d="M45.6,8.8h-1.9c-0.3,0-0.4-0.1-0.4-0.5V6h2.3V8.8z M45.6,11.3h-8.5V6h2
				c0,1.8-0.2,2.5-1.3,3.2c0,0-0.1,0.1-0.1,0.1v0.9c0,0,0,0.1,0.1,0.1c0,0,0,0,0,0c2-0.8,2.6-2.3,2.7-4.3h1.3v2.4
				c-0.1,0.7,0.5,1.4,1.2,1.4c0,0,0.1,0,0.1,0h2.4V11.3z M40.5,3.3h1.3v1.6h-1.3V3.3z M47.1,12.1v-7c0-0.1-0.1-0.2-0.2-0.2
				c0,0,0,0,0,0h-3.6V3.3h3.6c0.1,0,0.2-0.1,0.2-0.2V2.4c0-0.1-0.1-0.2-0.2-0.2H35.8c-0.1,0-0.2,0.1-0.2,0.2v0.8
				c0,0.1,0.1,0.2,0.2,0.2h3.3v1.6h-3.3c-0.1,0-0.2,0.1-0.2,0.2l0,0v7c0,0.1,0.1,0.2,0.2,0.2c0,0,0,0,0,0h11.1
				C47,12.3,47.1,12.2,47.1,12.1C47.1,12.1,47.1,12.1,47.1,12.1"/>
			<path id="パス_167" class="st0" d="M59.5,11.1v-0.2h-4.3v0.3c0,0.2,0.1,0.4,0.3,0.4c0,0,0.1,0,0.1,0h3.5
				C59.3,11.5,59.5,11.3,59.5,11.1 M55.2,10h3.1V9.4h-3.1V10z M55.2,8.5h3.1V7.9h-3.1L55.2,8.5z M53.8,7.9h-3.1v0.6h3.1L53.8,7.9z
				 M53.8,9.4h-3.1V10h3.1L53.8,9.4z M60.6,10.5v0.8c0,0.7-0.9,1.3-1.7,1.3H55c-0.7,0.1-1.2-0.4-1.3-1.1c0-0.1,0-0.2,0-0.3v-0.3
				h-4.2c-0.1,0-0.2-0.1-0.2-0.2c0,0,0,0,0,0V7.2c0-0.1,0.1-0.2,0.2-0.2c0,0,0,0,0,0h9.9c0.1,0,0.2,0.1,0.2,0.2v0v3.1h0.8
				C60.5,10.3,60.6,10.4,60.6,10.5 M60.6,6V3.8c0-0.1-0.1-0.2-0.2-0.2h-5.2V3.2h4.4c0.1,0,0.2-0.1,0.2-0.2c0,0,0,0,0,0V2.3
				c0-0.1-0.1-0.2-0.2-0.2H49.4c-0.1,0-0.2,0.1-0.2,0.2v0V3c0,0.1,0.1,0.2,0.2,0.2c0,0,0,0,0,0h4.4v0.5h-5.2c-0.1,0-0.2,0.1-0.2,0.2
				v2.4c0,0.1,0.1,0.2,0.2,0.2h1c0.1,0,0.2-0.1,0.2-0.2V4.5h4v2c0,0.1,0.1,0.2,0.2,0.2c0,0,0,0,0,0H55c0.1,0,0.2-0.1,0.2-0.2
				c0,0,0,0,0,0v-2h4V6c0,0.1,0.1,0.2,0.2,0.2l0,0h1C60.5,6.2,60.6,6.1,60.6,6 M58.6,6h-2.8v0.6h2.8V6z M58.6,4.9h-2.8v0.6h2.8V4.9z
				 M53.2,6h-2.8v0.6h2.8L53.2,6z M50.4,4.9h2.8v0.6h-2.8L50.4,4.9z"/>
			<path id="パス_168" class="st0" d="M72.7,3.6h-4.9c0,0,0-0.1,0-0.1V1.8c0-0.1-0.1-0.2-0.2-0.2h-1.4c-0.1,0-0.2,0.1-0.2,0.2v1.6
				c0,0.1,0,0.2,0,0.3h-4.1c-0.1,0-0.2,0.1-0.2,0.2v0.8c0,0.1,0.1,0.2,0.2,0.2h4.1c-0.1,2-0.6,5.1-4,6.4c0,0-0.1,0.1-0.1,0.1v0.9
				c0,0,0,0.1,0.1,0.1c0,0,0,0,0,0c4.3-1.3,5.5-4.2,5.7-7.5h3.4c0,1.7-0.1,3.4-0.2,5.1c-0.2,0.8-0.3,1.3-1,1.3h-2
				c-0.1,0-0.2,0.1-0.2,0.2v0.8c0,0.1,0.1,0.2,0.2,0.2h2.5c1,0,1.8-0.7,1.9-1.6c0.4-2.3,0.6-4.6,0.5-7C72.9,3.7,72.8,3.6,72.7,3.6"
				/>
			<path id="パス_169" class="st0" d="M84.8,1.9h-0.8C84,1.9,84,1.9,84,2c0,0,0,0,0,0v1.7h-0.4V2.9h-6.2c-0.1,0-0.2,0.1-0.2,0.2
				l0,0c-0.3,1.4-1.2,2.6-2.3,3.4c0,0-0.1,0.1-0.1,0.1v1c0,0,0,0.1,0.1,0.1c0,0,0,0,0,0c1.6-0.6,2.9-1.9,3.6-3.5h4
				c-0.5,4.1-2.9,6.7-7.4,7.3c-0.1,0-0.1,0.1-0.1,0.1v0.8c0,0.1,0.1,0.1,0.1,0.1c5.1-0.5,8.4-3.2,9.1-8.1h0.7c0.1,0,0.1,0,0.1-0.1
				L84.8,1.9C84.9,1.9,84.9,1.9,84.8,1.9C84.8,1.9,84.8,1.9,84.8,1.9 M85.7,4.4C85.6,4.4,85.6,4.3,85.7,4.4
				C85.6,4.3,85.6,4.3,85.7,4.4L85.6,2c0-0.1,0-0.1,0.1-0.1c0,0,0,0,0,0h0.8c0.1,0,0.1,0,0.1,0.1c0,0,0,0,0,0v2.3c0,0,0,0.1-0.1,0.1
				c0,0,0,0,0,0H85.7z"/>
			<path id="パス_170" class="st0" d="M116.6,3.9c-0.4,0-0.6-0.3-0.6-0.6s0.3-0.6,0.6-0.6c0.4,0,0.6,0.3,0.6,0.6
				C117.2,3.6,116.9,3.9,116.6,3.9 M116.6,1.8c-0.7,0-1.2,0.4-1.4,1.1h-8.1c-0.1,0-0.2,0.1-0.2,0.2v0V4c0,0.1,0,0.1,0.1,0.2h7
				c-0.3,3.6-2.1,6.4-6.3,7.2l0,0c-0.1,0-0.1,0.1-0.1,0.1v0.8c0,0.1,0.1,0.1,0.1,0.1c4.2-0.7,7.4-3,8.1-8c0.7,0.4,1.5,0.3,2-0.4
				c0.4-0.7,0.3-1.5-0.4-2C117.1,1.9,116.9,1.8,116.6,1.8"/>
			<path id="パス_171" class="st0" d="M97.8,6.3h-0.9c-0.1,0-0.1,0-0.1,0.1l0,0c-0.3,2.1-1.7,3.8-3.7,4.3V2.9
				c0-0.1-0.1-0.2-0.2-0.2c0,0,0,0,0,0h-1.3c-0.1,0-0.2,0.1-0.2,0.2c0,0,0,0,0,0v9.3c0,0.1,0.1,0.2,0.2,0.2c0,0,0,0,0,0
				C95,12,97.4,10.3,97.8,6.3C97.8,6.4,97.8,6.3,97.8,6.3 M89.9,2.9v2.9c0,4.2-1.9,6.2-3.9,6.9l0,0c-0.1,0-0.1,0-0.1-0.1v-0.9
				c0-0.1,0-0.1,0.1-0.1c1-0.3,2.3-2.3,2.3-5.7v-3c0-0.1,0.1-0.2,0.2-0.2h1.3C89.8,2.7,89.9,2.8,89.9,2.9"/>
			<path id="パス_172" class="st0" d="M107.1,7.4V6.5c0-0.1-0.1-0.2-0.2-0.2h-7.6c-0.1,0-0.2,0.1-0.2,0.2v0.9
				c0,0.1,0.1,0.2,0.2,0.2c0,0,0,0,0,0h7.6C107.1,7.6,107.1,7.5,107.1,7.4C107.1,7.4,107.1,7.4,107.1,7.4"/>
			<path id="パス_173" class="st0" d="M8.6,1.1L8.6,1.1c-2.1,0-4,1.1-5.2,2.8L2.2,2.1L0,5.4l1.2,1.9L0,9.1l2.2,3.3l1.2-1.9
				c1.1,1.7,3.1,2.8,5.2,2.8l0,0c2.1,0,4-1.1,5.2-2.8l1.2,1.9l2.2-3.3l-1.2-1.9l1.2-1.9L15,2.1l-1.2,1.9C12.6,2.2,10.7,1.1,8.6,1.1
				 M8.6,9.7c-0.8,0-1.6-0.4-2-1.1L5.6,7.3l0.9-1.4C7.3,4.8,8.8,4.5,10,5.2c0.3,0.2,0.5,0.4,0.7,0.7l0.9,1.4l-0.9,1.4
				C10.2,9.3,9.4,9.7,8.6,9.7"/>
		</g>
	</g>
</g>
</svg>
