<svg xmlns="http://www.w3.org/2000/svg" width="253.546" height="60" viewBox="0 0 253.546 60">
  <g id="logo" transform="translate(-0.05 0.084)">
    <g id="グループ_83" data-name="グループ 83" transform="translate(43.522 0.949)">
      <path id="パス_118" data-name="パス 118" d="M38.884,23.088a2.343,2.343,0,0,1-.361-.944.955.955,0,0,1,1.049-.845c.723,0,1.076.575,1.521,1.789h1.741c.558-1.323.74-1.906,1.61-1.906a1,1,0,0,1,1.1.938,2.387,2.387,0,0,1-.333.967h1.448a.937.937,0,0,1,.788,1,.949.949,0,0,1-.788,1.009H43.168v1.141h3.855A.92.92,0,0,1,47.8,27.24a.93.93,0,0,1-.773,1h-3.3c1.32,1.413,2.8,1.721,3.188,2.418a.857.857,0,0,1,.7-.361l.941.111a.546.546,0,0,0,.623-.558v-8.8H44.84c-1.369,0-2.006-.543-2.006-1.767V14.5c0-1.228.637-1.741,2.057-1.741h4.554c1.437,0,2.085.512,2.085,1.741V30.117c0,1.9-.632,2.632-2.594,2.632-1.141,0-1.849-.265-2.107-.773a1.162,1.162,0,0,1-.843.31c-.9,0-2.389-.827-4.018-2.66-1.659,1.852-3.291,2.73-4.451,2.73a1.009,1.009,0,0,1-1.1-1.033c0-1.331,2.282-1.248,3.732-3.083H36.846a.93.93,0,0,1-.781-1,.919.919,0,0,1,.781-1.006H40.6V25.093H37.161a.967.967,0,0,1-.83-1.009.958.958,0,0,1,.83-1Zm10.3-5.211h-4V18.5c0,.339.068.429.407.429h3.6Zm0-2.586c0-.341-.092-.429-.426-.429H45.586c-.339,0-.407.087-.407.429v.691h4ZM34.817,31.975c0,.45-.512.879-1.24.879-.683,0-1.215-.429-1.215-.879V14.459c0-1.144.688-1.6,2.182-1.6h4.429c1.38,0,1.982.441,1.982,1.649v4.8c0,1.271-.58,1.789-1.968,1.789H34.816V31.975Zm0-14.057v1.058H38.3c.333,0,.423-.092.423-.43v-.626H34.817Zm3.906-2.654c0-.339-.09-.426-.423-.426H35.218c-.336,0-.4.087-.4.426v.762h3.907v-.762" transform="translate(-30.983 4.037)" fill="#fff"/>
      <path id="パス_119" data-name="パス 119" d="M60.921,17.759h3.445c1.809,0,2.5.719,2.5,2.521v9.253c0,1.824-.623,2.489-2.5,2.489h-13.8a2.209,2.209,0,0,1-2.511-2.489V20.28c0-1.9.58-2.521,2.511-2.521H53.6V15.344H48.15a1.1,1.1,0,0,1-.919-1.163,1.041,1.041,0,0,1,.919-1.112H66.667a1.083,1.083,0,0,1,.965,1.112,1.139,1.139,0,0,1-.965,1.163H60.921Zm-4.843-2.415,2.337,0H56.078v2.415h2.337Zm-2.337,0-.067,4.825c-.315,3.6-2.054,5.72-3.5,5.72a1.046,1.046,0,0,1-1.12-1.073c0-1.024,1.835-1.979,2.117-4.647H51c-.4,0-.54.13-.54.555v8.231c0,.464.125.6.586.6H63.827c.453,0,.583-.133.583-.58V25.709H60.57a1.922,1.922,0,0,1-2.156-2.158V20.169Zm8.4.557c0-.444-.117-.555-.564-.555H60.921v2.668c0,.35.136.483.5.483h2.99v-2.6" transform="translate(-25.214 4.155)" fill="#fff"/>
      <path id="パス_120" data-name="パス 120" d="M65.3,19.167a1.122,1.122,0,0,1,1.2-1.16c.854,0,2.773,1.027,5.967,2.814a20.376,20.376,0,0,0,1.516-5.405c.271-1.607.475-2.412,1.5-2.412.822,0,1.366.561,1.366,1.564a21.451,21.451,0,0,1-1.965,7.566c3.658,1.971,5.649,2.822,5.649,4.164a1.267,1.267,0,0,1-1.244,1.291c-.783,0-2.505-1.32-5.72-3.129-3.2,5.007-7.333,7.265-8.871,7.265a1.286,1.286,0,0,1-1.364-1.3c0-1.117,1.294-1.383,3.208-2.589a14.913,14.913,0,0,0,4.674-4.668c-3.794-2.079-5.909-2.636-5.909-4" transform="translate(-18.968 4.13)" fill="#fff"/>
      <path id="パス_121" data-name="パス 121" d="M80.785,16.958a1.236,1.236,0,0,1-1.076-1.274,1.257,1.257,0,0,1,1.076-1.294H91.531a1.254,1.254,0,0,1,1.07,1.294,1.235,1.235,0,0,1-1.07,1.274ZM89.9,22.832a9.124,9.124,0,0,1-2.117,6.613,8.909,8.909,0,0,1-5.606,2.882,1.349,1.349,0,0,1-1.5-1.32c0-1.36,1.5-1.2,3.12-2.033a5.7,5.7,0,0,0,3.331-5.5c0-.2-.017-.444-.017-.645H79.42a1.276,1.276,0,0,1-1.092-1.3,1.244,1.244,0,0,1,1.092-1.266H95.89a1.244,1.244,0,0,1,1.079,1.266,1.276,1.276,0,0,1-1.079,1.3Zm5.583-7.216c0,.475-.382.825-.984.825-.441,0-.754-.444-1.228-1.223-.491-.827-.6-1.117-.6-1.453a.864.864,0,0,1,.933-.784c.564,0,.811.315,1.328,1.183A3.365,3.365,0,0,1,95.479,15.616Zm2.567-.494a.846.846,0,0,1-.955.83c-.444,0-.784-.447-1.255-1.228-.493-.833-.6-1.1-.6-1.428a.856.856,0,0,1,.936-.808c.558,0,.8.31,1.342,1.2a3.127,3.127,0,0,1,.534,1.434" transform="translate(-13.146 3.93)" fill="#fff"/>
      <path id="パス_122" data-name="パス 122" d="M102.5,21.52c-3.6,1.879-5.981,2.616-6.747,2.616a1.28,1.28,0,0,1-1.377-1.291c0-.854.615-1.033,1.7-1.326a29.371,29.371,0,0,0,5.856-2.278c3.788-2.011,4.887-4.357,5.931-4.357a1.209,1.209,0,0,1,1.209,1.163c0,.967-1.426,2.369-4.224,4.241V30.324a1.061,1.061,0,0,1-1.169.87c-.662,0-1.177-.429-1.177-.87v-8.8" transform="translate(-6.92 4.86)" fill="#fff"/>
      <path id="パス_123" data-name="パス 123" d="M116.939,19.092a19.036,19.036,0,0,1-2.48,8.713c-1.521,2.454-3.1,3.678-4.145,3.678a1.246,1.246,0,0,1-1.439-1.337c0-1.183,1.391-1.312,3.148-3.746a13.791,13.791,0,0,0,2.17-7.309h-4.17a1.192,1.192,0,0,1-.992-1.294,1.2,1.2,0,0,1,.992-1.291h4.3V14a1.265,1.265,0,0,1,1.345-1.033A1.246,1.246,0,0,1,117.009,14v2.508h6.8c2.356,0,3.109,1.172,3.109,4.167,0,4.989-.734,8.252-1.36,9.342-.716,1.249-1.854,1.673-3.731,1.673-2.41,0-3.6-.583-3.6-1.735a1.205,1.205,0,0,1,1.291-1.252c.791,0,1.684.355,2.578.355,1.451,0,2.117-2.48,2.117-7.555,0-1.741-.035-2.41-.612-2.41h-6.668" transform="translate(-1.293 4.115)" fill="#fff"/>
      <path id="パス_124" data-name="パス 124" d="M129.236,20.138c0,6.278-2.719,10.544-4.395,10.544a1.231,1.231,0,0,1-1.271-1.2c0-.825,1.1-1.786,1.934-3.644a12.883,12.883,0,0,0,1.055-5.76V15.315a1.367,1.367,0,0,1,2.679,0v4.822Zm5.506,7.219c0,.242.108.376.3.376a5.41,5.41,0,0,0,2.679-1.364,8.2,8.2,0,0,0,2.933-4.912c.375-1.61.265-2.836,1.613-2.836.848,0,1.309.512,1.309,1.491a11.815,11.815,0,0,1-3.388,7.686,9.54,9.54,0,0,1-5.9,2.819,2.153,2.153,0,0,1-2.239-2.443V14.528a1.373,1.373,0,0,1,2.687,0V27.357" transform="translate(4.41 4.298)" fill="#fff"/>
      <path id="パス_125" data-name="パス 125" d="M154.424,15.846c1.141,0,1.824.6,1.824,1.385,0,1.314-1.537,3.3-4.758,5.405,4.536,1.895,6.789,2.682,6.789,4.067a1.084,1.084,0,0,1-1.183,1.141c-.956,0-3.186-1.388-7.259-3.267v7.062a1.284,1.284,0,0,1-1.334,1.109,1.3,1.3,0,0,1-1.345-1.109V25.091c-3.351,1.635-5.647,2.278-6.568,2.278a1.312,1.312,0,0,1-1.473-1.3c0-1.664,2.858-1.494,7.555-3.706,3.9-1.854,5.753-3.641,5.753-3.869,0-.125-.065-.2-.242-.2H141.321a1.224,1.224,0,0,1-1.044-1.228,1.21,1.21,0,0,1,1.044-1.228h5.837v-1.99a1.213,1.213,0,0,1,1.271-1.092,1.353,1.353,0,0,1,1.407,1.092v1.99h4.587" transform="translate(10.443 4.035)" fill="#fff"/>
      <path id="パス_126" data-name="パス 126" d="M159.56,21.537a1.655,1.655,0,0,1,.06.453,1.262,1.262,0,0,1-1.174,1.252,1.04,1.04,0,0,1-.984-.543l-1.977-4.775a1.376,1.376,0,0,1-.082-.364,1.276,1.276,0,0,1,1.2-1.212,1.053,1.053,0,0,1,.992.515Zm5.659-1.2c.011.108.035.3.035.409A1.248,1.248,0,0,1,164,21.991a.943.943,0,0,1-.976-.54L161.348,16.6l-.065-.312a1.275,1.275,0,0,1,1.228-1.228,1.108,1.108,0,0,1,1.09.632Zm6.6-1.6c-.312,4.443-1.814,7.6-4.847,9.938a11.79,11.79,0,0,1-5.672,2.58,1.2,1.2,0,0,1-1.32-1.242c0-.938.916-1.16,2.344-1.713a10.782,10.782,0,0,0,5.406-4.116c1.448-2.256,1.437-4.492,1.641-6.542.105-1.1.415-1.57,1.271-1.57.8,0,1.226.537,1.226,1.57l-.05,1.094" transform="translate(16.763 4.929)" fill="#fff"/>
      <path id="パス_127" data-name="パス 127" d="M175.683,19.475c3.166.623,7.092,1.317,8.928,1.939,1.022.364,1.936.626,1.917,1.624a1.238,1.238,0,0,1-1.271,1.309c-.665,0-3.812-1.009-9.572-2.213v9.042a1.424,1.424,0,0,1-2.8,0V13.958a1.424,1.424,0,0,1,2.8,0v5.518" transform="translate(23.546 4.047)" fill="#fff"/>
      <path id="パス_128" data-name="パス 128" d="M34.419,10.895c0,.523,0,.976-.672.976-.754,0-.754-.366-.754-.976V7.37c-.355.805-.526,1.12-.893,1.12a.733.733,0,0,1-.732-.705c0-.185,0-.2.429-.9a10.822,10.822,0,0,0,1.172-2.635h-.355c-.489,0-.976,0-.976-.683s.487-.683.976-.683h.379V1.7c0-.526,0-.976.657-.976.77,0,.77.366.77.976V2.881H34.6c.5,0,.976,0,.976.683s-.489.683-.976.683H34.42v.415a16.96,16.96,0,0,0,1.133,1.524c.268.318.39.464.39.732a.649.649,0,0,1-.609.659c-.293,0-.475-.2-.913-.781v4.1Zm4.1-9.185c0-.523,0-.976.657-.976.756,0,.756.366.756.976v.634h1.624c.415,0,.976,0,.976.7,0,.68-.561.68-.976.68H39.932V4.955h1.843c.512,0,.976,0,.976.645,0,.732-.39.732-.976.732H40.8a12.882,12.882,0,0,0,1.366,2.573c.108.16.634.83.708.99a.84.84,0,0,1,.085.353.743.743,0,0,1-.743.722.959.959,0,0,1-.72-.5,15.31,15.31,0,0,1-1.562-2.816V10.9c0,.523,0,.976-.659.976-.754,0-.754-.366-.754-.976V7.859a13.3,13.3,0,0,1-1.575,2.56c-.39.464-.586.586-.854.586a.767.767,0,0,1-.743-.732c0-.279.085-.378.586-.938a10.214,10.214,0,0,0,1.781-3H36.6c-.512,0-.976,0-.976-.645,0-.732.39-.732.976-.732H38.52V3.721h-1.1c-.318.819-.477,1.024-.83,1.024s-.794-.279-.794-.634a1.37,1.37,0,0,1,.2-.572,9.267,9.267,0,0,0,.634-2.085.582.582,0,0,1,.6-.526.639.639,0,0,1,.719.623,5.256,5.256,0,0,1-.122.791h.7V1.71Z" transform="translate(-31.369 -0.636)" fill="#fff"/>
      <path id="パス_129" data-name="パス 129" d="M49.445,4.077A24.238,24.238,0,0,0,50.432,9.5c.037.133.185.548.33.548.2,0,.279-.353.376-.913a.583.583,0,0,1,.575-.489c.122,0,.743.049.743.634a5.736,5.736,0,0,1-.439,1.817,1.307,1.307,0,0,1-1.147.916,1.69,1.69,0,0,1-1.328-.965,9.51,9.51,0,0,1-1.024-2.779,23.543,23.543,0,0,1-.6-4.2H42.152c-.526,0-.976,0-.976-.659,0-.756.366-.756.976-.756h5.683a6.847,6.847,0,0,1,.049-1.5A.609.609,0,0,1,48.517.8c.477,0,.672.171.745.487.035.133.085,1.158.1,1.377h1.133c-.718-.976-.743-1.123-.743-1.328A.7.7,0,0,1,50.455.66c.379,0,.561.208.941.672.475.586.548.781.548.987a.5.5,0,0,1-.171.379.565.565,0,0,1,.4.62c0,.756-.366.756-.976.756H49.445Zm-4.4,5.72c.426-.074.523-.1,1.353-.282a1.447,1.447,0,0,1,.366-.06.742.742,0,0,1,.233,1.416,23.59,23.59,0,0,1-4.929.768c-.3,0-.865,0-.865-.708a.715.715,0,0,1,.743-.791c.83-.037.965-.049,1.635-.122V7.064H42.4c-.453,0-.623,0-.781-.182a.844.844,0,0,1-.2-.526.78.78,0,0,1,.279-.586c.146-.108.33-.108.7-.108h3.817c.439,0,.62,0,.781.182a.844.844,0,0,1,.2.526.773.773,0,0,1-.282.586,1.184,1.184,0,0,1-.694.108H45.042Z" transform="translate(-27.563 -0.66)" fill="#fff"/>
      <path id="パス_130" data-name="パス 130" d="M54.143,5.407c-.6,0-1.038,0-.965-.819a10.375,10.375,0,0,1-1.255.623,1.537,1.537,0,0,1-.355.049.754.754,0,0,1-.779-.805c0-.477.244-.648,1.183-1.024a16.908,16.908,0,0,0,3.476-2.293A1.454,1.454,0,0,1,56.4.688c.366,0,.426.035,1.416.781A22.478,22.478,0,0,0,61.535,3.8a.649.649,0,0,1,.415.634c0,.244-.244.83-.672.83a3.6,3.6,0,0,1-1.559-.7c.035.843-.366.843-.976.843h-4.6ZM58.79,3.993a13.815,13.815,0,0,1-2.147-1.537.553.553,0,0,0-.233-.122c-.049,0-.085.025-.255.171a14.393,14.393,0,0,1-1.963,1.488h4.6ZM51.836,8.117c-.489,0-.973,0-.973-.732s.486-.732.973-.732H61c.475,0,.976,0,.976.719,0,.745-.477.745-.976.745H55.472c-.06.279-.572,1.632-.743,2.071,1.2-.085,2.876-.205,4.061-.353-.111-.146-.282-.366-.379-.512a.679.679,0,0,1-.108-.379.744.744,0,0,1,.756-.669c.244,0,.426,0,1.439,1.377.913,1.234.913,1.428.913,1.635a.842.842,0,0,1-.84.72.616.616,0,0,1-.512-.233c-.014-.011-.355-.586-.39-.634-.307.087-3.211.39-3.806.453-.669.06-1.476.147-2.133.219a9.394,9.394,0,0,1-1.317.1,1.03,1.03,0,0,1-.732-.185.8.8,0,0,1-.282-.634.625.625,0,0,1,.429-.645,5.518,5.518,0,0,1,1.22-.136c.122-.279.293-.669.512-1.269.108-.3.318-.851.353-.924H51.836Z" transform="translate(-23.833 -0.649)" fill="#fff"/>
      <path id="パス_131" data-name="パス 131" d="M63.589,10.983c0,.547,0,.987-.7.987-.743,0-.743-.341-.743-.987V8.337c-.732.694-.9.729-1.123.729a.722.722,0,0,1-.731-.779c0-.379.074-.453.819-1.073a7.61,7.61,0,0,0,2.193-3.063c0-.1-.025-.1-.205-.1H61.455c-.512,0-.976,0-.976-.719s.523-.719.976-.719h.659V1.787c0-.512,0-.976.657-.976.77,0,.77.376.77.976v.83h.6a.867.867,0,0,1,.83.913,6.175,6.175,0,0,1-.976,2.523c.2.122,1.16.756,1.4.976a.644.644,0,0,1,.279.537.759.759,0,0,1-.719.745.664.664,0,0,1-.429-.171c-.23-.171-.865-.634-.938-.683v3.524Zm4.025-5.891H66.15c-.477,0-.99,0-.99-.722s.512-.719.99-.719h1.464V1.787c0-.477,0-.976.719-.976a.751.751,0,0,1,.645.293,1.281,1.281,0,0,1,.1.683V3.652h1.331c.464,0,.976,0,.976.719s-.512.722-.976.722H69.076v5.048h1.488c.464,0,.976,0,.976.732s-.512.732-.976.732h-4.8c-.453,0-.976,0-.976-.732s.523-.732.976-.732h1.854V5.092Z" transform="translate(-20.144 -0.601)" fill="#fff"/>
    </g>
    <g id="グループ_84" data-name="グループ 84" transform="translate(0.05 -0.084)">
      <path id="パス_132" data-name="パス 132" d="M18.326,2.958l.441-.591.965,1.952h.48L19.027,2,20.193.422h-.529L18.326,2.3V.422h-.375v3.9h.375V2.958" transform="translate(6.897 0.28)" fill="#fff"/>
      <path id="パス_133" data-name="パス 133" d="M20.306,3.186h1.106l.279,1.134h.4L21.087.422h-.421l-1.035,3.9h.387ZM20.869,1h.008l.4,1.716h-.859L20.869,1" transform="translate(7.548 0.28)" fill="#fff"/>
      <path id="パス_134" data-name="パス 134" d="M22.012,1.173h.006l1.4,3.145h.412V.422h-.353V3.573h-.006L22.091.422h-.437v3.9h.358V1.173" transform="translate(8.334 0.28)" fill="#fff"/>
      <path id="パス_135" data-name="パス 135" d="M24.678,3.993c-.355,0-.762-.2-.762-.908h-.35a1.484,1.484,0,0,0,.282.984.941.941,0,0,0,.837.376,1.046,1.046,0,0,0,1.081-1.181.973.973,0,0,0-.629-1.035l-.791-.253a.456.456,0,0,1-.328-.5A.593.593,0,0,1,24.653.8c.3,0,.665.187.683.788h.36c-.022-.426-.117-1.237-1.084-1.237-.672,0-.955.594-.955,1.2a.839.839,0,0,0,.589.911l.572.2c.453.143.591.271.591.691a.643.643,0,0,1-.73.643" transform="translate(9.075 0.253)" fill="#fff"/>
      <path id="パス_136" data-name="パス 136" d="M27.786,4.318l-1-3.9h-.418l-1.049,3.9H25.7L26,3.184h1.1l.279,1.134Zm-1.671-1.6L26.546,1h.011l.409,1.716h-.852" transform="translate(9.755 0.28)" fill="#fff"/>
      <rect id="長方形_46" data-name="長方形 46" width="0.379" height="3.896" transform="translate(37.937 0.702)" fill="#fff"/>
      <path id="パス_137" data-name="パス 137" d="M18.306,6.41c0-.114-.011-.605-.011-.956h.011l.781,3.237h.366l.781-3.245h0c0,.361,0,.851,0,.965V8.69H20.6V4.819h-.54L19.28,8.085h-.011l-.786-3.266h-.537V8.69h.361V6.41" transform="translate(6.895 1.987)" fill="#fff"/>
      <path id="パス_138" data-name="パス 138" d="M22.33,8.224H20.663V6.944H22.18V6.475H20.663V5.28h1.642V4.819H20.291V8.69H22.33V8.224" transform="translate(7.805 1.987)" fill="#fff"/>
      <path id="パス_139" data-name="パス 139" d="M22.129,4.819V8.69h1.092c.9,0,1.172-1.128,1.172-1.982,0-1.126-.447-1.889-1.152-1.889ZM24,6.744c0,.958-.312,1.494-.786,1.494H22.5V5.269h.688c.493,0,.811.489.811,1.476" transform="translate(8.518 1.987)" fill="#fff"/>
      <rect id="長方形_47" data-name="長方形 47" width="0.366" height="3.871" transform="translate(33.445 6.806)" fill="#fff"/>
      <path id="パス_140" data-name="パス 140" d="M26.09,8.36c-.691,0-.922-.708-.922-1.6,0-1.022.407-1.545.908-1.545.265,0,.669.119.773.805h.366c-.06-.651-.436-1.277-1.138-1.277-.811,0-1.294.84-1.294,2.033,0,1.478.615,2.052,1.242,2.052.208,0,1.063-.065,1.212-1.516h-.364c-.126.881-.547,1.049-.784,1.049" transform="translate(9.548 1.956)" fill="#fff"/>
      <path id="パス_141" data-name="パス 141" d="M27.745,4.819,26.7,8.69h.384l.293-1.133h1.109l.273,1.133h.409L28.163,4.819Zm-.25,2.293.439-1.718h.011l.409,1.718h-.859" transform="translate(10.292 1.987)" fill="#fff"/>
      <path id="パス_142" data-name="パス 142" d="M30.478,8.224H29.092v-3.4h-.366V8.69h1.752V8.224" transform="translate(11.078 1.987)" fill="#fff"/>
      <path id="パス_143" data-name="パス 143" d="M19.776,12.342,18.4,9.2h-.447v3.888h.364V9.946h.008l1.409,3.14h.407V9.2h-.353v3.144h-.01" transform="translate(6.897 3.686)" fill="#fff"/>
      <path id="パス_144" data-name="パス 144" d="M22,9.667V9.2H19.982v3.888h2.042v-.464H20.36v-1.3h1.51V10.86H20.36V9.667H22" transform="translate(7.685 3.686)" fill="#fff"/>
      <path id="パス_145" data-name="パス 145" d="M22.946,13.086V9.667h.913V9.2H21.637v.469h.933v3.419h.376" transform="translate(8.327 3.686)" fill="#fff"/>
      <path id="パス_146" data-name="パス 146" d="M33.5,19.817a5.621,5.621,0,0,0-7.068-3.606l-3.744,1.223V13.508A5.626,5.626,0,0,0,17.07,7.877h-.247a5.619,5.619,0,0,0-5.606,5.631v7.657c-4.039,1.317-7.285,2.381-7.285,2.381A5.612,5.612,0,0,0,.05,28.881a5.445,5.445,0,0,0,.276,1.732l.071.242a5.6,5.6,0,0,0,7.079,3.59l3.741-1.2v3.914A5.623,5.623,0,0,0,16.823,42.8h.247a5.629,5.629,0,0,0,5.623-5.637V29.515l7.3-2.381a5.62,5.62,0,0,0,3.592-7.074ZM11.218,31.112,6.85,32.526a3.574,3.574,0,0,1-4.514-2.3l-.079-.239a3.609,3.609,0,0,1,2.286-4.528l6.675-2.139v7.8Zm9.455,6.048a3.608,3.608,0,0,1-3.6,3.6h-.247a3.592,3.592,0,0,1-3.576-3.6V32.589l7.426-2.418ZM29.36,25.2,13.249,30.45V13.508a3.586,3.586,0,0,1,3.576-3.6h.247a3.6,3.6,0,0,1,3.6,3.6V20.98h2.02V19.569l4.368-1.416a3.519,3.519,0,0,1,2.744.219,3.556,3.556,0,0,1,1.786,2.085l.076.239A3.585,3.585,0,0,1,29.36,25.2" transform="translate(-0.05 3.173)" fill="#fff"/>
      <path id="パス_147" data-name="パス 147" d="M13.458,8.744A4.414,4.414,0,1,0,9.052,4.319a4.433,4.433,0,0,0,4.406,4.425" transform="translate(3.443 0.084)" fill="#fff"/>
    </g>
    <g id="グループ_86" data-name="グループ 86" transform="translate(44.291 44.968)">
      <g id="グループ_85" data-name="グループ 85">
        <path id="パス_148" data-name="パス 148" d="M125.572,37.717a2.984,2.984,0,0,1-.823,2.161,2.2,2.2,0,0,1-2.7.44l.171-1.027c.268-1.829,1.306-2.786,2.192-2.786a1.135,1.135,0,0,1,1.156,1.212m-.859-2.1a2.856,2.856,0,0,0-2.158,1.056l.114-.868-.014-.044-.043-.019h-.987a.055.055,0,0,0-.056.05c-.075.634-.172,1.359-.26,1.939l-.994,5.759.012.046.043.021h1.065a.057.057,0,0,0,.057-.047l.387-2.3a3.28,3.28,0,0,0,1.358.235,3.484,3.484,0,0,0,2.542-1.091,3.689,3.689,0,0,0,1.019-2.705,2,2,0,0,0-2.085-2.032" transform="translate(2.378 -31.115)" fill="#fff"/>
        <path id="パス_149" data-name="パス 149" d="M129.513,39.986a1.787,1.787,0,0,1-1.3.6,1.442,1.442,0,0,1-1.5-1.484,2.8,2.8,0,0,1,.719-2.022,1.831,1.831,0,0,1,1.349-.607,1.435,1.435,0,0,1,1.484,1.471,2.859,2.859,0,0,1-.754,2.043m-.648-4.372a3.348,3.348,0,0,0-2.45,1.026,3.4,3.4,0,0,0-.929,2.5,2.407,2.407,0,0,0,2.618,2.3,3.341,3.341,0,0,0,3.38-3.491,2.4,2.4,0,0,0-2.619-2.337" transform="translate(4.383 -31.115)" fill="#fff"/>
        <path id="パス_150" data-name="パス 150" d="M138.68,35.73l-.049-.025H137.54a.056.056,0,0,0-.053.035L136.2,38.9c-.169.44-.321.827-.459,1.212-.014-.117-.028-.239-.043-.365-.028-.251-.061-.537-.11-.881l-.527-3.116a.055.055,0,0,0-.056-.046h-1.148a.056.056,0,0,0-.051.033l-1.344,3.173c-.13.3-.236.579-.329.823-.057.154-.11.293-.162.418-.018-.174-.029-.328-.04-.5-.014-.217-.032-.465-.068-.809l-.457-3.091a.058.058,0,0,0-.057-.047h-1.065l-.043.019-.012.044.894,5.466a.054.054,0,0,0,.056.046h1.19a.053.053,0,0,0,.051-.033l1.344-2.993c.192-.454.365-.887.494-1.242.043.455.092.834.155,1.234l.515,2.988a.056.056,0,0,0,.056.047h1.187a.057.057,0,0,0,.053-.033l2.458-5.465Z" transform="translate(6.225 -31.08)" fill="#fff"/>
        <path id="パス_151" data-name="パス 151" d="M153.5,35.7H152.4a.056.056,0,0,0-.051.035L151.062,38.9c-.171.44-.322.826-.461,1.212-.014-.117-.029-.239-.042-.365-.029-.251-.061-.537-.111-.881l-.527-3.116a.057.057,0,0,0-.056-.047h-1.147a.057.057,0,0,0-.051.035l-1.344,3.172c-.13.3-.236.579-.328.823-.058.153-.11.293-.162.418-.019-.175-.029-.329-.04-.5-.014-.218-.032-.465-.069-.808l-.457-3.093a.058.058,0,0,0-.056-.049h-1.067l-.043.021-.011.044.893,5.466a.057.057,0,0,0,.056.046h1.192a.056.056,0,0,0,.051-.033l1.344-2.993c.192-.454.365-.887.493-1.244.043.457.092.836.155,1.235l.516,2.99a.057.057,0,0,0,.056.047h1.188a.056.056,0,0,0,.051-.033l2.461-5.465,0-.053Z" transform="translate(11.992 -31.081)" fill="#fff"/>
        <path id="パス_152" data-name="パス 152" d="M144.342,35.638a2.557,2.557,0,0,0-.308-.024,2.107,2.107,0,0,0-1.825,1.177c.036-.348.064-.673.093-.991l-.015-.043-.04-.019H141.3a.056.056,0,0,0-.056.053c-.061.743-.137,1.374-.235,1.936l-.6,3.524.011.044.043.021h1.079a.054.054,0,0,0,.054-.046L142,38.865c.215-1.281,1.006-2.211,1.881-2.211a1.655,1.655,0,0,1,.279.022.055.055,0,0,0,.064-.046l.165-.926-.01-.042Z" transform="translate(10.173 -31.115)" fill="#fff"/>
        <path id="パス_153" data-name="パス 153" d="M152.747,34.309a.8.8,0,0,0-.572.229A.616.616,0,0,0,152,35a.671.671,0,0,0,.712.64.793.793,0,0,0,.57-.215.651.651,0,0,0,.185-.475.672.672,0,0,0-.719-.64" transform="translate(14.673 -31.622)" fill="#fff"/>
        <path id="パス_154" data-name="パス 154" d="M153.349,35.7h-1.084a.056.056,0,0,0-.056.047l-.949,5.466.012.044.046.021h1.07a.058.058,0,0,0,.057-.046l.958-5.466-.012-.044Z" transform="translate(14.386 -31.08)" fill="#fff"/>
        <path id="パス_155" data-name="パス 155" d="M160.3,36.222a2.709,2.709,0,0,0-2.139.987l.543-3.1-.011-.046-.043-.021h-1.078a.057.057,0,0,0-.056.046l-1.341,7.763.013.046.042.021h1.08a.057.057,0,0,0,.056-.046l.459-2.733a2.325,2.325,0,0,1,1.993-2.031.843.843,0,0,1,.961.849,3.742,3.742,0,0,1-.042.744l-.555,3.151.011.046.043.021h1.079a.057.057,0,0,0,.056-.046l.554-3.194a4.406,4.406,0,0,0,.062-.94,1.563,1.563,0,0,0-1.685-1.523" transform="translate(16.292 -31.723)" fill="#fff"/>
        <path id="パス_156" data-name="パス 156" d="M166.682,36.222a2.7,2.7,0,0,0-2.138.987l.544-3.1-.013-.046-.043-.021h-1.077a.055.055,0,0,0-.056.046l-1.341,7.763.013.046.043.021h1.079a.057.057,0,0,0,.055-.046l.458-2.733a2.326,2.326,0,0,1,1.992-2.031.844.844,0,0,1,.962.849,3.745,3.745,0,0,1-.042.744l-.557,3.151.013.046.043.021H167.7a.054.054,0,0,0,.056-.046l.554-3.194a4.405,4.405,0,0,0,.062-.94,1.564,1.564,0,0,0-1.686-1.523" transform="translate(18.771 -31.723)" fill="#fff"/>
        <path id="パス_157" data-name="パス 157" d="M173.786,40.561a1.058,1.058,0,0,1-1.08-1.155,2.866,2.866,0,0,1,.822-2.081,2.7,2.7,0,0,1,1.947-.854,2.463,2.463,0,0,1,.612.065h0l-.278,1.595c-.229,1.362-1.12,2.428-2.025,2.428m3.563-4.729a6.832,6.832,0,0,0-1.716-.218,4.156,4.156,0,0,0-3.123,1.233,3.732,3.732,0,0,0-1.026,2.734,1.882,1.882,0,0,0,1.947,1.861,2.514,2.514,0,0,0,2.244-1.4,10.535,10.535,0,0,0-.06,1.221.055.055,0,0,0,.056.054h1a.057.057,0,0,0,.057-.056l0-.022a10.977,10.977,0,0,1,.157-2.5l.5-2.847a.056.056,0,0,0-.039-.064" transform="translate(22.233 -31.115)" fill="#fff"/>
        <path id="パス_158" data-name="パス 158" d="M180.117,35.638a2.6,2.6,0,0,0-.31-.024,2.111,2.111,0,0,0-1.827,1.177c.036-.346.065-.673.093-.991l-.014-.043-.042-.019h-.948a.054.054,0,0,0-.056.053c-.061.743-.137,1.374-.235,1.936l-.6,3.524.013.044.043.021h1.078a.055.055,0,0,0,.054-.046l.408-2.405c.215-1.281,1.006-2.211,1.882-2.211a1.676,1.676,0,0,1,.278.022A.057.057,0,0,0,180,36.63l.165-.926-.008-.042Z" transform="translate(24.055 -31.115)" fill="#fff"/>
        <path id="パス_159" data-name="パス 159" d="M140.386,37.108a.587.587,0,0,1-.165.451c-.339.354-1.169.519-2.612.519h-.062a2.1,2.1,0,0,1,1.9-1.616c.57,0,.92.242.94.645m-.816-1.494a3.2,3.2,0,0,0-2.335,1.012,3.555,3.555,0,0,0-.991,2.56,2.279,2.279,0,0,0,2.55,2.246,4.951,4.951,0,0,0,1.959-.378l.032-.04.144-.813-.021-.054-.058-.008a4.871,4.871,0,0,1-1.857.434,1.489,1.489,0,0,1-1.388-.705,1.985,1.985,0,0,1-.179-.955l.223,0c1.828,0,2.982-.279,3.53-.854a1.288,1.288,0,0,0,.357-.992c-.039-.869-.829-1.455-1.965-1.455" transform="translate(8.558 -31.115)" fill="#fff"/>
        <path id="パス_160" data-name="パス 160" d="M171.483,37.108a.587.587,0,0,1-.165.451c-.339.354-1.167.519-2.612.519h-.061a2.1,2.1,0,0,1,1.9-1.616c.568,0,.919.242.938.645m-.816-1.494a3.2,3.2,0,0,0-2.335,1.012,3.562,3.562,0,0,0-.992,2.56,2.281,2.281,0,0,0,2.551,2.246,4.958,4.958,0,0,0,1.96-.378l.032-.04.143-.813-.019-.054-.058-.008a4.865,4.865,0,0,1-1.857.434,1.488,1.488,0,0,1-1.388-.705,1.985,1.985,0,0,1-.179-.955l.223,0c1.827,0,2.982-.279,3.528-.854a1.288,1.288,0,0,0,.357-.992c-.04-.869-.83-1.455-1.965-1.455" transform="translate(20.625 -31.115)" fill="#fff"/>
        <path id="パス_161" data-name="パス 161" d="M157.066,36.079h-1.441l.229-1.276-.017-.051-.051-.014-1.106.237a.053.053,0,0,0-.043.044l-.192,1.058h-.851a.058.058,0,0,0-.055.047l-.135.733.011.047.044.021h.843l-.484,2.7a4.52,4.52,0,0,0-.083,1.04c.032.7.568,1.116,1.432,1.116a2.949,2.949,0,0,0,.954-.15l.036-.042.135-.78-.021-.053-.057-.008a1.727,1.727,0,0,1-.712.136c-.358,0-.548-.161-.564-.482a4.117,4.117,0,0,1,.075-.869l.454-2.608h1.46a.054.054,0,0,0,.056-.046l.135-.733L157.1,36.1Z" transform="translate(15.218 -31.455)" fill="#fff"/>
        <path id="パス_162" data-name="パス 162" d="M183.187,36.1l-.043-.021H181.7l.229-1.276-.017-.051-.05-.014-1.108.237a.055.055,0,0,0-.043.044l-.192,1.058h-.851a.057.057,0,0,0-.056.046l-.135.734.013.047.043.021h.843l-.483,2.7a4.443,4.443,0,0,0-.083,1.04c.032.7.568,1.116,1.431,1.116a2.945,2.945,0,0,0,.955-.15l.037-.042.133-.78-.018-.053-.057-.008a1.731,1.731,0,0,1-.712.136c-.359,0-.548-.161-.564-.482a4.119,4.119,0,0,1,.075-.869l.454-2.608h1.46a.057.057,0,0,0,.056-.046l.135-.733Z" transform="translate(25.338 -31.455)" fill="#fff"/>
        <path id="パス_163" data-name="パス 163" d="M157.728,36.069a37.792,37.792,0,0,0-32.646,0,.082.082,0,0,0-.051.087.079.079,0,0,0,.083.054h.768a.594.594,0,0,0,.254-.056,44.27,44.27,0,0,1,30.537,0,.62.62,0,0,0,.254.056h.768a.079.079,0,0,0,.083-.054.082.082,0,0,0-.05-.089" transform="translate(4.207 -32.373)" fill="#fff"/>
        <path id="パス_164" data-name="パス 164" d="M188.086,40.428a.079.079,0,0,0-.083-.053h-.768a.62.62,0,0,0-.254.056,43.946,43.946,0,0,1-15.266,2.716,43.947,43.947,0,0,1-15.27-2.716.62.62,0,0,0-.254-.056h-.768a.076.076,0,0,0-.082.054.083.083,0,0,0,.051.089,37.627,37.627,0,0,0,7.822,2.736,37.916,37.916,0,0,0,8.5.962h0a37.907,37.907,0,0,0,8.5-.962,37.579,37.579,0,0,0,7.822-2.737.082.082,0,0,0,.05-.089" transform="translate(15.969 -29.268)" fill="#fff"/>
        <path id="パス_165" data-name="パス 165" d="M57.123,44a4.984,4.984,0,0,1-3.612-1.4A5.112,5.112,0,0,1,49.9,44h0a.092.092,0,0,1-.09-.094v-.5a.089.089,0,0,1,.09-.09v0a3.6,3.6,0,0,0,2.728-1.707H49.866a.138.138,0,0,1-.139-.137v-.577a.138.138,0,0,1,.139-.139H52.75v-.7H49.866a.138.138,0,0,1-.139-.137v-.582a.139.139,0,0,1,.139-.139h1.861l-.984-.873c-.04-.042-.018-.117.065-.117H52.06a.263.263,0,0,1,.218.092l.006.006.651.891h1.234l.672-.919a.268.268,0,0,1,.2-.071h1.215c.083,0,.1.075.065.117l-.987.873h1.9a.137.137,0,0,1,.136.139v.582a.136.136,0,0,1-.136.137H54.24v.7h2.986a.136.136,0,0,1,.136.139v.577a.136.136,0,0,1-.136.137H54.4a3.821,3.821,0,0,0,2.764,1.717.089.089,0,0,1,.053.081v.507a.092.092,0,0,1-.092.092Zm1.034-8.577h-2.78v-.64h2.78Zm0,1.512h-2.78V36.3h2.78Zm1.27-3.019H54.154a.181.181,0,0,0-.183.18v3.521a.182.182,0,0,0,.183.185h4v5.375c0,.146-.036.136-.178.136h-.217a.089.089,0,0,0-.092.09v.711a.093.093,0,0,0,.092.094h1.233c.472,0,.615-.193.615-.557V34.1a.18.18,0,0,0-.182-.18M48.951,36.3H51.72v.639H48.951Zm0-1.513H51.72v.64H48.951Zm0,9.242V37.807h3.992a.182.182,0,0,0,.182-.185V34.1a.181.181,0,0,0-.182-.18H47.682a.181.181,0,0,0-.18.18v9.929a.183.183,0,0,0,.18.185h1.087a.183.183,0,0,0,.182-.185" transform="translate(-25.878 -31.773)" fill="#fff"/>
        <path id="パス_166" data-name="パス 166" d="M67.571,40.593H65.707c-.272,0-.4-.146-.4-.487v-2.35h2.264Zm0,2.424H59.036V37.754h2.009c-.04,1.788-.246,2.492-1.3,3.236a.139.139,0,0,0-.056.1v.876a.08.08,0,0,0,.11.08c2.043-.776,2.636-2.322,2.686-4.286h1.326v2.4a1.327,1.327,0,0,0,1.345,1.427h2.415ZM62.49,35.068h1.321v1.573H62.49Zm6.57,8.768V36.82a.179.179,0,0,0-.183-.179H65.307V35.068h3.569a.183.183,0,0,0,.183-.179v-.762a.184.184,0,0,0-.183-.183H57.73a.182.182,0,0,0-.179.183v.762a.182.182,0,0,0,.179.179h3.319v1.573H57.73a.179.179,0,0,0-.179.179v7.017a.181.181,0,0,0,.179.183H68.876a.182.182,0,0,0,.183-.183" transform="translate(-21.978 -31.763)" fill="#fff"/>
        <path id="パス_167" data-name="パス 167" d="M77.862,42.854v-.186H73.583v.279a.338.338,0,0,0,.378.378h3.5a.486.486,0,0,0,.4-.471m-4.278-1.076h3.1v-.619h-3.1Zm0-1.471h3.105v-.623h-3.1Zm-1.437-.625H69.055v.623h3.088Zm0,1.477H69.055v.619h3.088Zm6.818,1.1v.762c0,.741-.893,1.285-1.745,1.285H73.44a1.2,1.2,0,0,1-1.3-1.358v-.279H67.915a.182.182,0,0,1-.183-.182v-3.47a.183.183,0,0,1,.183-.185h9.9a.184.184,0,0,1,.183.185v3.1h.826a.137.137,0,0,1,.136.137m0-4.442V35.588a.185.185,0,0,0-.183-.186h-5.2v-.471h4.388a.181.181,0,0,0,.183-.182V34.1a.182.182,0,0,0-.183-.18H67.76a.181.181,0,0,0-.182.18v.65a.181.181,0,0,0,.182.182h4.383V35.4H66.971a.185.185,0,0,0-.183.186v2.353a.183.183,0,0,0,.183.182h1.013a.182.182,0,0,0,.182-.182v-1.7h3.977v2.045a.182.182,0,0,0,.183.183H73.4a.182.182,0,0,0,.182-.183V36.239h3.973v1.574A.186.186,0,0,0,77.74,38h1.041a.185.185,0,0,0,.183-.185m-2-.071h-2.78v.58h2.78Zm0-1.034h-2.78v.582h2.78Zm-5.412,1.034H68.773v.58h2.775Zm-2.775-1.034h2.776v.582H68.773Z" transform="translate(-18.394 -31.773)" fill="#fff"/>
        <path id="パス_168" data-name="パス 168" d="M87.342,35.548H82.479c0-.04,0-.076,0-.117v-1.7a.185.185,0,0,0-.183-.183H80.918a.186.186,0,0,0-.183.183v1.555c0,.081,0,.171,0,.261H76.585a.184.184,0,0,0-.182.185v.838a.183.183,0,0,0,.182.183h4.148c-.069,2.042-.612,5.059-4.027,6.424a.159.159,0,0,0-.083.118v.87a.078.078,0,0,0,.112.078c4.257-1.252,5.488-4.152,5.691-7.49h3.352a38.61,38.61,0,0,1-.247,5.105c-.169.837-.26,1.251-1,1.251H82.551a.184.184,0,0,0-.182.185v.84a.184.184,0,0,0,.182.183h2.526a1.876,1.876,0,0,0,1.915-1.607,37.462,37.462,0,0,0,.53-6.99.18.18,0,0,0-.18-.171" transform="translate(-14.662 -31.917)" fill="#fff"/>
        <path id="パス_169" data-name="パス 169" d="M95.9,33.723h-.78a.092.092,0,0,0-.092.092v1.728h-.441v-.8h-6.25a.218.218,0,0,0-.223.185h0a5.561,5.561,0,0,1-2.333,3.37.152.152,0,0,0-.072.108V39.42a.082.082,0,0,0,.112.082,6.58,6.58,0,0,0,3.633-3.533h4.024c-.544,4.136-2.918,6.725-7.422,7.268a.136.136,0,0,0-.126.133v.79a.136.136,0,0,0,.126.135c5.141-.479,8.412-3.179,9.129-8.1H95.9a.093.093,0,0,0,.093-.092V33.815a.091.091,0,0,0-.092-.092m.84,2.48a.092.092,0,0,1-.092-.092v-2.29a.091.091,0,0,1,.092-.092h.781a.091.091,0,0,1,.09.092v2.29a.089.089,0,0,1-.09.092Z" transform="translate(-11.053 -31.849)" fill="#fff"/>
        <path id="パス_170" data-name="パス 170" d="M118.624,35.762a.639.639,0,1,1,.639-.64.642.642,0,0,1-.639.64m0-2.07a1.429,1.429,0,0,0-1.385,1.083h-8.1a.184.184,0,0,0-.183.185v.9a.182.182,0,0,0,.1.16h6.99c-.311,3.62-2.092,6.382-6.3,7.232v0a.14.14,0,0,0-.139.137v.791a.137.137,0,0,0,.135.136c4.218-.663,7.4-2.951,8.1-8a1.429,1.429,0,1,0,.786-2.623" transform="translate(-2.03 -31.861)" fill="#fff"/>
        <path id="パス_171" data-name="パス 171" d="M105.683,37.963H104.8a.092.092,0,0,0-.09.092h0a5.151,5.151,0,0,1-3.723,4.335V34.5a.181.181,0,0,0-.183-.183h-1.28a.181.181,0,0,0-.182.183v9.335a.172.172,0,0,0,.193.185c3.369-.432,5.8-2.129,6.246-5.971a.092.092,0,0,0-.09-.085M97.809,34.51v2.883c0,4.249-1.936,6.223-3.93,6.881h0c-.076.024-.122-.014-.122-.078V43.26a.154.154,0,0,1,.075-.135c1.008-.316,2.31-2.261,2.31-5.654V34.509a.182.182,0,0,1,.18-.183h1.3a.185.185,0,0,1,.182.185" transform="translate(-7.928 -31.619)" fill="#fff"/>
        <path id="パス_172" data-name="パス 172" d="M111.345,38.022v-.9a.183.183,0,0,0-.183-.183h-7.63a.184.184,0,0,0-.182.183v.9a.182.182,0,0,0,.182.183h7.63a.181.181,0,0,0,.183-.183" transform="translate(-4.206 -30.6)" fill="#fff"/>
        <path id="パス_173" data-name="パス 173" d="M40.51,33.2h0A6.128,6.128,0,0,0,35.358,36l-1.227-1.854-2.208,3.335,1.227,1.853L31.923,41.19l2.208,3.335,1.227-1.853a6.13,6.13,0,0,0,5.151,2.8h0a6.132,6.132,0,0,0,5.151-2.8l1.227,1.853L49.1,41.19,47.87,39.334,49.1,37.481l-2.208-3.335L45.662,36a6.132,6.132,0,0,0-5.152-2.8m0,8.592a2.452,2.452,0,0,1-2.04-1.092l-.9-1.364.9-1.363a2.455,2.455,0,0,1,4.082,0l.9,1.363-.9,1.364a2.457,2.457,0,0,1-2.042,1.092" transform="translate(-31.923 -32.052)" fill="#fff"/>
      </g>
    </g>
  </g>
</svg>
